<svg xmlns="http://www.w3.org/2000/svg" viewBox="0 0 512 512"><defs><linearGradient id="b" x1="247.79" x2="113.6" y1="323.1" y2="188.91" gradientTransform="rotate(45 180.698 256.008)" gradientUnits="userSpaceOnUse"><stop offset="0" stop-color="#78a0b5"/><stop offset=".43" stop-color="#78a0b5"/><stop offset="1" stop-color="#a3c7d3"/></linearGradient><linearGradient id="c" x1="387.38" x2="263.12" y1="318.14" y2="193.87" gradientUnits="userSpaceOnUse"><stop offset="0" stop-color="#34344f"/><stop offset=".26" stop-color="#3b3b57"/><stop offset=".66" stop-color="#50506d"/><stop offset="1" stop-color="#666684"/></linearGradient><radialGradient id="a" cx="256.01" cy="1093.63" r="200.83" gradientTransform="matrix(1 0 0 .45 0 -84.32)" gradientUnits="userSpaceOnUse"><stop offset="0" stop-color="#78a0b5" stop-opacity=".6"/><stop offset="1" stop-color="#78a0b5" stop-opacity="0"/></radialGradient></defs><g><path fill="#e6f1f4" d="M496.53,129.86C483.09,80.39,431.64,28.93,382.16,15.49,351.82,7.93,311.18.14,256,0,200.84.14,160.2,7.93,129.86,15.49,80.39,28.93,28.93,80.38,15.49,129.86,7.93,160.19.14,200.84,0,256c.13,55.17,7.92,95.81,15.48,126.15,13.44,49.48,64.9,100.93,114.37,114.37,30.34,7.56,71,15.35,126.15,15.48,55.16-.13,95.81-7.92,126.15-15.48,49.48-13.44,100.93-64.89,114.37-114.37,7.56-30.34,15.35-71,15.49-126.15C511.88,200.84,504.09,160.2,496.53,129.86Z"/><path fill="url(#a)" d="M444.69,366.22c-10.54-17.58-50.91-35.87-89.72-40.64a860.73,860.73,0,0,0-99-5.5,860.78,860.78,0,0,0-99,5.5c-38.81,4.78-79.18,23.06-89.72,40.64-5.93,10.78-12,25.22-12.15,44.83.11,19.6,6.22,34,12.15,44.82,10.54,17.58,50.91,35.87,89.72,40.64a860.78,860.78,0,0,0,99,5.5,860.73,860.73,0,0,0,99-5.5c38.81-4.77,79.18-23.06,89.72-40.64,5.93-10.78,12-25.22,12.15-44.82C456.73,391.44,450.62,377,444.69,366.22Z"/><circle cx="180.7" cy="256" r="94.93" fill="url(#b)" transform="rotate(-45 180.69 256.005)"/><path fill="url(#c)" d="M370.06,199.82H257.17a94.73,94.73,0,0,1,0,112.37H370.06a56.19,56.19,0,1,0,0-112.37Z"/></g></svg>