<svg xmlns="http://www.w3.org/2000/svg" enable-background="new 0 0 64 64" viewBox="0 0 64 64"><path fill="#f6db40" d="M17,44c0,1.13-0.26,2.19-0.74,3.13C15.12,49.43,12.74,51,10,51c-3.87,0-7-3.13-7-7s3.13-7,7-7
	c1.41,0,2.71,0.41,3.8,1.12C15.73,39.37,17,41.53,17,44z"/><path fill="#71d2df" d="M37.31,49.45C38.37,50.67,39,52.26,39,54c0,3.87-3.13,7-7,7s-7-3.13-7-7c0-0.81,0.14-1.58,0.39-2.3
	c0.48-1.41,1.4-2.6,2.6-3.44C29.12,47.46,30.5,47,32,47C34.13,47,36.04,47.95,37.31,49.45z"/><path fill="#f6db40" d="M54,25c3.87,0,7,3.13,7,7s-3.13,7-7,7c-1.88,0-3.58-0.73-4.83-1.95C47.83,35.79,47,33.99,47,32
	c0-0.32,0.02-0.63,0.07-0.94c0.2-1.56,0.92-2.95,1.98-4.01C50.32,25.78,52.06,25,54,25z"/><path fill="#db535b" d="M38.93,29.94C38.48,33.36,35.55,36,32,36c-3.87,0-7-3.13-7-7c0-1.13,0.26-2.19,0.74-3.13
	C26.88,23.57,29.26,22,32,22c3.87,0,7,3.13,7,7C39,29.32,38.98,29.63,38.93,29.94z"/><path fill="#8360f4" d="M32,3c3.87,0,7,3.13,7,7c0,1.94-0.78,3.68-2.05,4.95S33.94,17,32,17c-1.41,0-2.71-0.41-3.8-1.12
	c-1.27-0.82-2.26-2.04-2.78-3.49C25.15,11.65,25,10.84,25,10C25,6.13,28.13,3,32,3z"/><path fill="#6599ed" d="M16.58,15.61C16.85,16.35,17,17.16,17,18c0,1.13-0.26,2.19-0.74,3.13c-0.6,1.2-1.53,2.2-2.68,2.88
	C12.54,24.64,11.31,25,10,25c-3.87,0-7-3.13-7-7s3.13-7,7-7C13.03,11,15.6,12.92,16.58,15.61z"/><path fill="#1a1a1a" d="M13.464,36.8C12.414,36.293,11.242,36,10,36c-4.411,0-8,3.589-8,8s3.589,8,8,8
	c2.768,0,5.211-1.414,6.648-3.557l7.557,3.783C24.075,52.797,24,53.39,24,54c0,4.411,3.589,8,8,8s8-3.589,8-8
	c0-1.658-0.507-3.199-1.375-4.478l10.619-11.103C50.576,39.407,52.218,40,54,40c4.411,0,8-3.589,8-8s-3.589-8-8-8
	c-1.846,0-3.542,0.634-4.898,1.688L38.312,14.898C39.366,13.542,40,11.846,40,10c0-4.411-3.589-8-8-8s-8,3.589-8,8
	c0,0.608,0.074,1.199,0.204,1.769l-7.092,2.584C15.782,11.772,13.097,10,10,10c-4.411,0-8,3.589-8,8s3.589,8,8,8
	c1.138,0,2.219-0.242,3.2-0.673l3.681,6.195L13.464,36.8z M10,50c-3.309,0-6-2.691-6-6s2.691-6,6-6s6,2.691,6,6S13.309,50,10,50z
	 M17.539,46.651C17.832,45.82,18,44.93,18,44c0-2.453-1.112-4.649-2.855-6.117l2.876-4.442l8.671,14.591
	c-0.73,0.65-1.341,1.428-1.794,2.303L17.539,46.651z M32,18c1.846,0,3.542-0.634,4.898-1.688l10.791,10.791
	c-0.647,0.832-1.131,1.793-1.41,2.839l-6.282-0.864C39.996,29.052,40,29.026,40,29c0-4.411-3.589-8-8-8
	c-2.768,0-5.212,1.414-6.648,3.557l-1.193-0.596l4.378-6.761C29.586,17.707,30.758,18,32,18z M33,46.069v-9.139
	c3.25-0.408,5.894-2.77,6.722-5.872l6.282,0.864C46.004,31.948,46,31.974,46,32c0,1.91,0.674,3.663,1.795,5.04l-10.5,10.979
	C36.118,46.976,34.637,46.275,33,46.069z M32,23c3.309,0,6,2.691,6,6s-2.691,6-6,6s-6-2.691-6-6S28.691,23,32,23z M24.461,26.349
	C24.168,27.18,24,28.07,24,29c0,4.072,3.06,7.436,7,7.931v9.139c-0.948,0.119-1.843,0.403-2.658,0.824l-9.108-15.327l3.831-5.916
	L24.461,26.349z M32,60c-3.309,0-6-2.691-6-6s2.691-6,6-6s6,2.691,6,6S35.309,60,32,60z M54,26c3.309,0,6,2.691,6,6s-2.691,6-6,6
	s-6-2.691-6-6S50.691,26,54,26z M32,4c3.309,0,6,2.691,6,6s-2.691,6-6,6s-6-2.691-6-6S28.691,4,32,4z M24.888,13.647
	c0.489,0.949,1.158,1.788,1.967,2.47l-4.496,6.944l-4.82-2.41C17.832,19.82,18,18.93,18,18c0-0.608-0.074-1.199-0.204-1.769
	L24.888,13.647z M4,18c0-3.309,2.691-6,6-6s6,2.691,6,6s-2.691,6-6,6S4,21.309,4,18z M14.915,24.299
	c0.67-0.524,1.258-1.148,1.733-1.856l4.617,2.308l-3.171,4.897L14.915,24.299z"/></svg>