<svg xmlns="http://www.w3.org/2000/svg" viewBox="0 0 48 48"><g data-name="Gmail website"><path fill="#c6c3d8" d="M47 3v6H1V3a2 2 0 0 1 2-2h42a2 2 0 0 1 2 2Z"/><path fill="#dad7e5" d="M47 3v6H4V3a2 2 0 0 1 2-2h39a2 2 0 0 1 2 2zm0 6v36a2 2 0 0 1-2 2H3a2 2 0 0 1-2-2V9z"/><path fill="#edebf2" d="M47 9v36h-7a35.72 35.72 0 0 1-16.44-4H35a2 2 0 0 0 2-2V21a2 2 0 0 0-2-2H9a2 2 0 0 0-2 2v2.35A35.66 35.66 0 0 1 4 9Z"/><circle cx="5" cy="5" r="1" fill="#db5669"/><circle cx="9" cy="5" r="1" fill="#6fabe6"/><circle cx="13" cy="5" r="1" fill="#9dcc6b"/><path fill="#edebf2" d="M43 6H21a1 1 0 0 1 0-2h22a1 1 0 0 1 0 2Z"/><rect width="30" height="22" x="9" y="17" fill="#c6c3d8" rx="2"/><path fill="#dad7e5" d="M39 19v18h-8a20.06 20.06 0 0 1-18-11.31 19.68 19.68 0 0 1-2-7.49V17h26a2 2 0 0 1 1.23.43l.07.06.11.1.16.18a.58.58 0 0 1 .11.15 2 2 0 0 1 .28.68v.2a1.34 1.34 0 0 1 .04.2Z"/><path fill="#db5669" d="M39 19v18a2 2 0 0 1-2 2h-2V24l-11 7-11-7v15h-2a2 2 0 0 1-2-2V19a2 2 0 0 1 .77-1.57L24 26l14.23-8.57A2 2 0 0 1 39 19Z"/><path fill="#f26674" d="M39 19v18h-4V24l-11 7-11-7v1.69a19.68 19.68 0 0 1-2-7.49L24 26l14.23-8.57.07.06.11.1.16.18a.58.58 0 0 1 .11.15 2 2 0 0 1 .28.68v.2a1.34 1.34 0 0 1 .04.2Z"/></g></svg>