<svg xmlns="http://www.w3.org/2000/svg" xmlns:xlink="http://www.w3.org/1999/xlink" width="32" height="32" viewBox="0 0 32 32"><defs><linearGradient id="a"><stop offset="0" stop-color="#0ff"/><stop offset="1" stop-color="#00f"/></linearGradient><linearGradient id="c" x1="1.992" x2="29.942" y1="4.5" y2="32.45" gradientTransform="translate(0 -40)" gradientUnits="userSpaceOnUse" xlink:href="#a"/><linearGradient id="b" x1="1.992" x2="29.942" y1="4.5" y2="32.45" gradientTransform="translate(0 -40)" gradientUnits="userSpaceOnUse" xlink:href="#a"/></defs><g transform="translate(.008 37.5)"><path style="line-height:normal;font-variant-ligatures:normal;font-variant-position:normal;font-variant-caps:normal;font-variant-numeric:normal;font-variant-alternates:normal;font-variant-east-asian:normal;font-feature-settings:normal;font-variation-settings:normal;text-indent:0;text-align:start;text-decoration-line:none;text-decoration-style:solid;text-decoration-color:#000;text-transform:none;text-orientation:mixed;white-space:normal;shape-padding:0;shape-margin:0;inline-size:0;isolation:auto;mix-blend-mode:normal;solid-color:#000;solid-opacity:1" fill="url(#b)" d="m 27.400391,-28 a 1.000005,1.000005 0 0 0 -1,1 1.000005,1.000005 0 0 0 1,1 C 27.750084,-26 28,-25.750084 28,-25.400391 v 12.800782 C 28,-12.249915 27.750084,-12 27.400391,-12 H 9.6914062 c -0.3496943,0 -0.5996093,-0.249914 -0.5996093,-0.599609 a 1.000005,1.000005 0 0 0 -1,-1 1.000005,1.000005 0 0 0 -1,1 C 7.0917969,-11.176504 8.2683018,-10 9.6914062,-10 H 27.400391 C 28.823495,-10 30,-11.176504 30,-12.599609 V -25.400391 C 30,-26.823496 28.823496,-28 27.400391,-28 Z" color="#000" enable-background="accumulate" font-family="sans-serif" font-weight="400" overflow="visible"/><path style="line-height:normal;font-variant-ligatures:normal;font-variant-position:normal;font-variant-caps:normal;font-variant-numeric:normal;font-variant-alternates:normal;font-variant-east-asian:normal;font-feature-settings:normal;font-variation-settings:normal;text-indent:0;text-align:start;text-decoration-line:none;text-decoration-style:solid;text-decoration-color:#000;text-transform:none;text-orientation:mixed;white-space:normal;shape-padding:0;shape-margin:0;inline-size:0;isolation:auto;mix-blend-mode:normal;solid-color:#000;solid-opacity:1" fill="url(#c)" d="m 4.583905,-32.999998 c -0.651963,0 -1.246041,0.253765 -1.705078,0.658203 l 9.771484,8.378906 a 1.000105,1.000105 0 0 1 0.0098,0.0078 c 0.50616,0.443822 1.052433,0.443822 1.558593,0 a 1.000105,1.000105 0 0 1 0.01172,-0.0098 l 9.810544,-8.339844 c -0.46417,-0.426848 -1.07596,-0.695265 -1.74808,-0.695265 z m -2.591797,2.53125 c -6.34e-4,0.0233 -0.0078,0.04492 -0.0078,0.06836 v 12.800782 c 0,1.423104 1.176504,2.599609 2.599609,2.599609 h 17.708981 c 1.42311,0 2.59961,-1.176505 2.59961,-2.599609 v -12.800783 c 0,-6.62e-4 0,-0.0013 0,-0.002 l -9.355466,7.951172 c -1.193738,1.046719 -3.001074,1.045865 -4.195313,0 0,0 -0.002,0 -0.002,0 z" color="#000" enable-background="accumulate" font-family="sans-serif" font-weight="400" overflow="visible"/></g></svg>