<svg xmlns="http://www.w3.org/2000/svg" viewBox="0 0 64 64"><defs><linearGradient id="a" x1="31.17" x2="32.36" y1="-11.61" y2="50.79" gradientUnits="userSpaceOnUse"><stop offset="0" stop-color="#ffdde1"/><stop offset="1" stop-color="#ee9ca7"/></linearGradient></defs><g data-name="Layer 52"><rect width="56" height="56" x="4" y="4" fill="url(#a)" rx="12.58"/><path fill="#fff" d="M19.63,16.43A3.32,3.32,0,0,1,23,13.11H34.42c8.79,0,14.26,5,14.26,12.54v.11c0,8.41-6.75,12.81-15,12.81H27.11a.89.89,0,0,0-.89.89v8A3.35,3.35,0,0,1,23,50.89a3.27,3.27,0,0,1-3.41-3.27ZM33.89,32.62c5,0,8.09-2.79,8.09-6.7v-.11c0-4.4-3.16-6.7-8.09-6.7H27.11a.89.89,0,0,0-.89.89V31.73a.89.89,0,0,0,.89.89Z"/></g></svg>