<svg xmlns="http://www.w3.org/2000/svg" viewBox="0 0 64 64"><defs><linearGradient id="a" x1="31.17" x2="32.36" y1="-11.61" y2="50.79" gradientUnits="userSpaceOnUse"><stop offset="0" stop-color="#ffdde1"/><stop offset="1" stop-color="#ee9ca7"/></linearGradient></defs><g data-name="Layer 52"><rect width="56" height="56" x="4" y="4" fill="url(#a)" rx="12.58"/><path fill="#fff" d="M15.51,15.2a3.57,3.57,0,0,1,3.63-3.63H30.76c12.85,0,21.73,8.82,21.73,20.33V32c0,11.5-8.88,20.44-21.73,20.44H19.14a3.57,3.57,0,0,1-3.63-3.62ZM30.76,45.92C39.34,45.92,45,40.14,45,32.13V32c0-8-5.61-13.9-14.19-13.9h-7a1,1,0,0,0-1,1V44.89a1,1,0,0,0,1,1Z"/></g></svg>