<svg xmlns="http://www.w3.org/2000/svg" viewBox="0 0 283.46 283.46"><circle cx="122.52" cy="126.25" r="104.37" fill="#1347ba"/><path fill="#194ad5" d="M127.61,21.97V172.01h0c14.26,0,25.81,11.56,25.81,25.81v4.96c0,16.65,6.44,32.8,18.39,44.39,8.58,8.32,20.5,15.01,36.46,14.37l19.83,.02c14.29,.01,25.88-11.57,25.88-25.85h0c0-4.32-1.59-8.48-4.46-11.7h0c-1.31-1.47-1.38-3.66-.17-5.2l3.13-4.01c.92-1.18,1.12-2.78,.51-4.15h0c-.7-1.57-.33-3.4,.91-4.59l1.74-1.66c1.26-1.2,1.61-3.08,.88-4.65l-6.02-12.89c-1.03-2.21,.51-4.75,2.94-4.86h0c8.95-.4,14.54-9.86,10.57-17.89l-15.61-31.63c-3.35-6.78-4.24-14.51-2.51-21.88h0c1.54-6.58,.74-13.48-2.28-19.52-10.98-21.98-43.87-71.63-116-69.11Z"/><path fill="#1347ba" d="M246.55,101.51c-.17-.23-.34-.47-.52-.7-32.98-44.36-103.51-20.87-103.51,34.41v41.54c-4.21-3-9.36-4.75-14.91-4.75V21.97c72.13-2.51,105.02,47.14,116,69.11,1.65,3.28,2.62,6.82,2.93,10.43Z" opacity=".46"/><path fill="#fff" d="M125.83,143.39c0,1.41-1.14,2.54-2.54,2.54H45.25c-1.41,0-2.54-1.14-2.54-2.54s1.14-2.54,2.54-2.54H123.28c1.41,0,2.54,1.14,2.54,2.54Z"/><path fill="#2ce184" d="M125.83,126.13c-.06,1.39-1.32,2.43-2.71,2.43h-34.39c-.68,0-1.33-.27-1.82-.75l-17.66-17.65c-.98-.98-1.14-2.61-.2-3.63,.99-1.08,2.66-1.1,3.68-.08l17.03,17.03s.01,0,.02,0h33.51c1.44,0,2.61,1.2,2.54,2.66Z"/><circle cx="66.61" cy="102.49" r="11.61" fill="#2ce184"/><circle cx="45.25" cy="143.39" r="11.61" fill="#fff"/><path fill="#2ce184" d="M125.83,162.12c-.06,1.39-1.32,2.43-2.71,2.43h-33.34s-.01,0-.02,0l-17.03,17.03c-.99,.99-2.6,.99-3.6,0-.99-.99-.99-2.6,0-3.6l17.78-17.78c.48-.48,1.12-.75,1.8-.75h34.57c1.44,0,2.61,1.2,2.54,2.66Z"/><circle cx="66.61" cy="185.52" r="11.61" fill="#2ce184"/><path fill="#28dd79" d="M74.08 176.63c-1.09-.33-2.24-.52-3.44-.52-6.41 0-11.6 5.19-11.6 11.6 0 3.58 1.61 6.77 4.15 8.9-4.74-1.46-8.18-5.87-8.18-11.09 0-6.41 5.2-11.6 11.61-11.6 2.84 0 5.44 1.02 7.47 2.71zM74.08 93.6c-1.09-.33-2.24-.52-3.44-.52-6.41 0-11.6 5.19-11.6 11.6 0 3.58 1.61 6.77 4.15 8.9-4.74-1.46-8.18-5.87-8.18-11.09 0-6.41 5.2-11.6 11.61-11.6 2.84 0 5.44 1.02 7.47 2.71z"/><g><path fill="#fff" d="M130.59,125.97c-1.41,0-2.54-1.14-2.54-2.54V45.4c0-1.41,1.14-2.54,2.54-2.54s2.54,1.14,2.54,2.54V123.43c0,1.41-1.14,2.54-2.54,2.54Z"/><path fill="#2ce184" d="M147.85,125.97c-1.39-.06-2.43-1.32-2.43-2.71v-34.39c0-.68,.27-1.33,.75-1.82l17.65-17.66c.98-.98,2.61-1.14,3.63-.2,1.08,.99,1.1,2.66,.08,3.68l-17.03,17.03s0,.01,0,.02v33.51c0,1.44-1.2,2.61-2.66,2.54Z"/><circle cx="171.48" cy="66.76" r="11.61" fill="#2ce184"/><circle cx="130.59" cy="45.4" r="11.61" fill="#fff"/><path fill="#2ce184" d="M111.86,125.97c-1.39-.06-2.43-1.32-2.43-2.71v-33.34s0-.01,0-.02l-17.03-17.03c-.99-.99-.99-2.6,0-3.6,.99-.99,2.6-.99,3.6,0l17.78,17.78c.48,.48,.75,1.12,.75,1.8v34.57c0,1.44-1.2,2.61-2.66,2.54Z"/><circle cx="88.45" cy="66.76" r="11.61" fill="#2ce184"/><path fill="#28dd79" d="M97.35 74.23c.33-1.09.52-2.24.52-3.44 0-6.41-5.19-11.6-11.6-11.6-3.58 0-6.77 1.61-8.9 4.15 1.46-4.74 5.87-8.18 11.09-8.18 6.41 0 11.6 5.2 11.6 11.61 0 2.84-1.02 5.44-2.71 7.47zM180.38 74.23c.33-1.09.52-2.24.52-3.44 0-6.41-5.19-11.6-11.6-11.6-3.58 0-6.77 1.61-8.9 4.15 1.46-4.74 5.87-8.18 11.09-8.18 6.41 0 11.6 5.2 11.6 11.61 0 2.84-1.02 5.44-2.71 7.47z"/></g><circle cx="131.74" cy="141.73" r="37.35" fill="#2ce184"/><path fill="#28dd79" d="M169.09,141.74c0,13.73-7.41,25.73-18.46,32.22,8.42-6.84,13.8-17.28,13.8-28.98,0-20.63-16.73-37.36-37.36-37.36-6.91,0-13.37,1.87-18.92,5.15,6.42-5.25,14.64-8.39,23.57-8.39,20.63,0,37.36,16.73,37.36,37.36Z"/><circle cx="131.74" cy="141.73" r="18.52" fill="#fff"/></svg>