<svg xmlns="http://www.w3.org/2000/svg" viewBox="0 0 283.46 283.46"><path fill="#194ad5" d="M46.68,163.1l12.62-13.36c17.6-18.63,42.1-29.19,67.73-29.19h43.61c11.51,0,20.84,9.33,20.84,20.84v5.39c0,1.16,.98,2.08,2.14,2.01l6.85-.4c7.22-.42,14.11-3.14,19.69-7.74l19.64-16.22c6.9-5.7,17.14-4.63,22.71,2.38h0c5.26,6.62,4.47,16.18-1.81,21.84l-37.62,33.89c-12.72,11.46-29.24,17.8-46.36,17.8H104.27c-5.06,0-9.88,2.15-13.27,5.91h0s-44.33-43.14-44.33-43.14Z"/><rect width="35.46" height="83.95" x="36.56" y="151.68" fill="#2ce184" rx="13.09" ry="13.09" transform="rotate(-45 54.293 193.651)"/><path fill="#1347ba" d="M190.66,152.71h-50.24c-1.93,0-3.5-1.57-3.5-3.5s1.57-3.5,3.5-3.5h50.24c1.93,0,3.5,1.57,3.5,3.5s-1.57,3.5-3.5,3.5Z"/><g><path fill="#2ce184" d="M106.18,53.31c-1.2,0-2.16,.39-2.89,1.16l-8.63,8.74c-.58,.58-.87,1.27-.87,2.08s.3,1.5,.9,2.05c.6,.56,1.26,.84,2,.84,.77,0,1.41-.27,1.91-.81l4.63-4.8v26.57c0,.97,.33,1.78,1.01,2.43,.67,.65,1.47,.98,2.4,.98,1,0,1.84-.33,2.52-.98,.67-.65,1.01-1.47,1.01-2.43v-31.95c0-1.08-.4-2-1.19-2.75-.79-.75-1.72-1.13-2.81-1.13Z"/><path fill="#2ce184" d="M106.65 96.05c-1.84 0-3.51-.68-4.84-1.98-1.35-1.3-2.07-3.01-2.07-4.94v-18.24c-.89.51-1.93.78-3.04.78-1.63 0-3.14-.62-4.39-1.78-1.31-1.22-2-2.81-2-4.61s.65-3.32 1.89-4.55l8.61-8.73c1.34-1.42 3.22-2.2 5.38-2.2 1.98 0 3.78.73 5.22 2.1 1.49 1.41 2.27 3.24 2.27 5.28v31.95c0 1.92-.72 3.62-2.07 4.94-1.33 1.29-3.04 1.97-4.95 1.97zm-10.59-31.09s-.01.01-.02.02l.02-.02zM154.7 59.33c-1.26-1.89-2.87-3.42-4.83-4.57-1.97-1.16-4.31-1.74-7-1.74s-5.03.58-6.98 1.74c-1.95 1.15-3.55 2.68-4.8 4.57-1.25 1.89-2.18 4.02-2.78 6.4-.6 2.37-.89 4.78-.89 7.21s.3 4.83.89 7.21 1.53 4.51 2.78 6.43c1.25 1.91 2.85 3.44 4.8 4.6 1.95 1.16 4.27 1.73 6.98 1.73s5.04-.57 7-1.73c1.96-1.16 3.58-2.69 4.83-4.6 1.25-1.91 2.18-4.05 2.77-6.43s.9-4.78.9-7.21-.3-4.83-.9-7.21c-.6-2.37-1.52-4.5-2.77-6.4zm-3.82 18.89c-.29 1.67-.77 3.14-1.44 4.42-.67 1.28-1.54 2.29-2.6 3.05-1.06.75-2.37 1.13-3.95 1.13s-2.85-.38-3.92-1.13c-1.08-.76-1.95-1.78-2.62-3.05-.67-1.28-1.15-2.75-1.44-4.42-.29-1.67-.43-3.43-.43-5.29s.14-3.62.43-5.29c.29-1.66.77-3.13 1.44-4.39.67-1.26 1.54-2.27 2.62-3.02 1.08-.75 2.38-1.14 3.92-1.14s2.89.38 3.95 1.14c1.06.75 1.92 1.76 2.6 3.02.67 1.26 1.15 2.72 1.44 4.39.29 1.67.43 3.43.43 5.29s-.15 3.62-.43 5.29z"/><path fill="#2ce184" d="M142.86,96.4c-3.33,0-6.28-.75-8.76-2.22-2.4-1.42-4.4-3.34-5.94-5.69-1.47-2.24-2.56-4.76-3.25-7.49-.66-2.63-1-5.35-1-8.06s.34-5.43,1-8.06c.69-2.74,1.79-5.25,3.25-7.47,1.55-2.33,3.55-4.23,5.94-5.65,2.48-1.48,5.43-2.23,8.76-2.23s6.28,.75,8.78,2.22c2.41,1.41,4.42,3.31,5.97,5.65h0c1.46,2.22,2.56,4.74,3.25,7.48,.67,2.65,1.01,5.36,1.01,8.06s-.34,5.41-1,8.06c-.69,2.74-1.78,5.26-3.24,7.49-1.56,2.36-3.57,4.28-5.98,5.7-2.5,1.47-5.46,2.22-8.78,2.22Zm.03-33.8c-.81,0-1.43,.17-1.92,.5-.62,.43-1.12,1.02-1.54,1.8-.5,.92-.86,2.04-1.08,3.33-.25,1.45-.38,3.03-.38,4.69s.13,3.24,.38,4.69c.22,1.3,.59,2.44,1.09,3.39,.42,.79,.92,1.38,1.54,1.82,.47,.33,1.1,.49,1.91,.49s1.47-.16,1.92-.48c.6-.43,1.11-1.04,1.53-1.83,.5-.95,.86-2.08,1.09-3.38h0c.25-1.47,.38-3.05,.38-4.7s-.13-3.23-.38-4.69c-.22-1.29-.58-2.41-1.08-3.33-.42-.79-.93-1.39-1.54-1.83-.46-.33-1.09-.49-1.92-.49Zm-11.79,7.16c-.13,1.05-.19,2.11-.19,3.17s.07,2.12,.19,3.17c-.09-1.03-.13-2.08-.13-3.17s.04-2.14,.13-3.17Zm23.58,0c.09,1.03,.13,2.09,.13,3.16s-.04,2.13-.13,3.16c.13-1.05,.2-2.11,.2-3.16s-.07-2.11-.2-3.16Z"/><g><path fill="#2ce184" d="M188.48,54.44c-.79-.75-1.72-1.13-2.81-1.13-1.2,0-2.16,.39-2.89,1.16l-8.63,8.74c-.58,.58-.87,1.27-.87,2.08s.3,1.5,.9,2.05c.6,.56,1.26,.84,2,.84,.77,0,1.41-.27,1.91-.81l4.63-4.8v26.57c0,.97,.33,1.78,1.01,2.43,.67,.65,1.47,.98,2.4,.98,1,0,1.84-.33,2.52-.98,.67-.65,1.01-1.47,1.01-2.43v-31.95c0-1.08-.4-2-1.19-2.75Z"/><path fill="#2ce184" d="M186.14,96.05c-1.84,0-3.51-.68-4.84-1.98-1.35-1.3-2.07-3.01-2.07-4.94v-18.24c-.89,.51-1.93,.78-3.04,.78-1.63,0-3.15-.62-4.39-1.79-1.31-1.21-2-2.81-2-4.61s.65-3.32,1.89-4.55l8.61-8.73c1.34-1.42,3.22-2.2,5.38-2.2,1.97,0,3.78,.72,5.22,2.1h0c1.49,1.42,2.27,3.24,2.27,5.29v31.95c0,1.92-.72,3.62-2.07,4.94-1.33,1.29-3.04,1.97-4.95,1.97Zm-10.59-31.09s-.01,.01-.02,.02l.02-.02Z"/></g></g></svg>