<svg xmlns="http://www.w3.org/2000/svg" viewBox="0 0 283.46 283.46"><path fill="#194ad5" d="M141.59,38.42s12.51-18.5,32.1-15.23c0,0,16.32-.54,28.29,20.67,0,0,26.66-5.44,35.91,15.23,0,0,7.07,16.87,3.81,27.2,0,0,7.07,13.06,5.98,23.94,0,0,27.75,19.59,13.06,53.32,0,0-8.16,14.15-13.6,19.04,0,0,3.26,15.23-4.35,21.22,0,0,3.81,27.75-25.03,37,0,0-11.43,35.36-48.97,26.66,0,0-15.23-3.81-27.2-17.95,0,0-22.85,27.75-52.23,16.32,0,0-21.22-7.07-27.2-29.92,0,0-22.85-5.98-22.31-31.56,0,0-10.34-10.88-5.44-27.2,0,0-34.73-23.39-1.32-65.83,0,0-5.76-20.13,9.48-27.2,0,0-7.62-41.35,39.17-40.26,0,0,21.22-41.89,59.85-5.44Z"/><path fill="#1347ba" d="M241.82,215.66c-2,8.71-7.85,19.9-24.21,25.15,0,0-11.42,35.37-48.96,26.66,0,0-15.23-3.81-27.2-17.96,0,0-22.86,27.76-52.24,16.32,0,0-21.21-7.07-27.2-29.91,0,0-22.85-5.99-22.31-31.56,0,0-10.33-10.88-5.43-27.2,0,0-34.73-23.39-1.32-65.83,0,0-5.75-20.13,9.48-27.21,0,0-6.82-37.01,32.09-40.08-6.43,8.77-2.72,21.75-2.72,21.75-33.41,42.44,1.32,65.83,1.32,65.83-4.9,16.32,5.44,27.21,5.44,27.21-.55,25.57,22.3,31.55,22.3,31.55,5.99,22.86,27.21,29.93,27.21,29.93,29.38,11.42,52.23-16.32,52.23-16.32,11.97,14.14,27.2,17.95,27.2,17.95,15.6,3.62,26.69-.37,34.33-6.27Z" opacity=".51"/><path fill="#1347ba" d="M260.75,163.55s-4.71,8.16-9.36,14.23c4.4-26.21-16.74-41.14-16.74-41.14,1.08-10.89-5.99-23.95-5.99-23.95,3.26-10.33-3.81-27.2-3.81-27.2-9.25-20.67-35.9-15.23-35.9-15.23-11.97-21.22-28.29-20.67-28.29-20.67-19.6-3.26-32.1,15.23-32.1,15.23-38.63-36.45-59.85,5.44-59.85,5.44-12.18-.28-20.67,2.3-26.57,6.3,.33-11.89,5.6-33.5,39.61-32.71,0,0,21.22-41.88,59.84-5.43,0,0,12.51-18.5,32.11-15.24,0,0,16.32-.55,28.29,20.67,0,0,26.65-5.43,35.9,15.24,0,0,7.07,16.87,3.81,27.2,0,0,7.07,13.06,5.99,23.94,0,0,27.74,19.58,13.06,53.32Z" opacity=".51"/><path fill="#2ce184" d="M191.82,210.28H91.64c-7.92,0-14.37-6.45-14.37-14.37V95.73c0-7.92,6.45-14.37,14.37-14.37h100.18c7.92,0,14.37,6.45,14.37,14.37v100.18c0,7.92-6.45,14.37-14.37,14.37ZM91.64,88.36c-4.06,0-7.37,3.31-7.37,7.37v100.18c0,4.06,3.31,7.37,7.37,7.37h100.18c4.06,0,7.37-3.31,7.37-7.37V95.73c0-4.06-3.31-7.37-7.37-7.37H91.64Z"/><g><path fill="#fff" d="M159.22 169.85c0 1.34-.51 2.6-1.53 3.8-1.02 1.19-2.37 1.79-4.06 1.79-1.1 0-2.12-.31-3.05-.92s-1.6-1.44-2-2.49l-3.05-8.1h-26.51l-3.14 8.1c-.41 1.05-1.08 1.88-2 2.49-.93.61-1.95.92-3.05.92-1.69 0-3.04-.57-4.05-1.7-1.02-1.14-1.53-2.43-1.53-3.88 0-.75.14-1.39.43-1.92l18.14-46.22c.64-1.63 1.71-2.94 3.23-3.97 1.51-1.01 3.14-1.53 4.88-1.53 1.86-.11 3.6.33 5.23 1.36 1.63 1.01 2.79 2.4 3.49 4.14l18.23 46.22c.23.7.35 1.34.35 1.92zm-16.66-15.09l-10.29-27.55-10.37 27.55h20.66zM176.7 173.95c-1.01.99-2.28 1.48-3.79 1.48-1.39 0-2.59-.5-3.57-1.48-.99-.99-1.48-2.21-1.48-3.66v-49.01c0-1.4.51-2.59 1.53-3.58 1.01-.99 2.25-1.48 3.7-1.48s2.68.5 3.67 1.48c.99.99 1.48 2.18 1.48 3.58v49.01c0 1.45-.51 2.68-1.53 3.66z"/></g></svg>