<svg xmlns="http://www.w3.org/2000/svg" viewBox="0 0 283.46 283.46"><path fill="#194ad5" d="M106.33,25.74c-17.8,8.24-37.8,24.37-44,55.86-5,25.39,1.43,51.59,16.51,72.62,2.34,3.26,4.95,6.62,7.88,10,0,0,9.93,9.06,9.93,50.5h88.91s0-29.96,11.09-52.23c1.45-2.92,3.28-5.64,5.31-8.2,8-10.12,34.4-48.57,12.11-91.05-8.9-16.96-23.5-30.35-40.94-38.27-1.43-.65-2.9-1.25-4.4-1.82-20.23-7.54-42.8-6.49-62.39,2.58Z"/><path fill="#1347ba" d="M201.95,154.3c-2.03,2.56-3.85,5.28-5.31,8.2-11.09,22.27-11.09,52.23-11.09,52.23h-41.3c1.59-9.03,4.26-19.28,8.74-28.28,1.46-2.92,3.28-5.64,5.31-8.2,7.99-10.12,34.4-48.57,12.11-91.05-8.9-16.97-23.5-30.35-40.94-38.28-1.44-.65-2.9-1.26-4.41-1.81-14.1-5.26-29.34-6.34-43.92-3.43,7.72-8.31,16.69-14.01,25.17-17.93,19.6-9.07,42.17-10.12,62.39-2.58,1.51,.57,2.98,1.17,4.41,1.82,17.44,7.92,32.04,21.31,40.94,38.27,22.29,42.48-4.12,80.93-12.11,91.05Z" opacity=".46"/><rect width="92.54" height="12.52" x="94.44" y="214.64" fill="#2ce184"/><rect width="81.14" height="13.38" x="101.09" y="232.33" fill="#2ce184"/><path fill="#2ce184" d="M113.34,249.81h56.65c0,8.56-6.95,15.5-15.5,15.5h-25.64c-8.56,0-15.5-6.95-15.5-15.5h0Z"/><path fill="#fff" d="M142.37,164.05c-1.45,0-2.63-1.18-2.63-2.63V80.81c0-1.45,1.18-2.63,2.63-2.63s2.63,1.18,2.63,2.63v80.62c0,1.45-1.18,2.63-2.63,2.63Z"/><path fill="#2ce184" d="M160.2,164.05c-1.43-.06-2.51-1.36-2.51-2.8v-35.53c0-.7,.28-1.38,.78-1.88l18.24-18.24c1.02-1.02,2.69-1.17,3.75-.2,1.11,1.02,1.14,2.74,.09,3.8l-17.59,17.59s0,.01,0,.02v34.62c0,1.49-1.24,2.69-2.75,2.63Z"/><circle cx="184.62" cy="102.88" r="11.99" fill="#2ce184"/><circle cx="142.37" cy="80.81" r="11.99" fill="#fff"/><path fill="#2ce184" d="M123.02,164.05c-1.43-.06-2.51-1.36-2.51-2.8v-34.45s0-.01,0-.02l-17.59-17.59c-1.03-1.03-1.03-2.69,0-3.72,1.03-1.03,2.69-1.03,3.72,0l18.37,18.37c.49,.49,.77,1.16,.77,1.86v35.72c0,1.49-1.24,2.69-2.75,2.63Z"/><circle cx="98.84" cy="102.88" r="11.99" fill="#2ce184"/><path fill="#28dd79" d="M108.03 110.59c.35-1.13.53-2.31.53-3.55 0-6.62-5.36-11.99-11.99-11.99-3.69 0-7 1.67-9.19 4.29 1.51-4.9 6.07-8.46 11.46-8.46 6.62 0 11.99 5.37 11.99 11.99 0 2.94-1.06 5.62-2.8 7.71zM193.81 110.59c.35-1.13.53-2.31.53-3.55 0-6.62-5.36-11.99-11.99-11.99-3.69 0-7 1.67-9.19 4.29 1.51-4.9 6.07-8.46 11.46-8.46 6.62 0 11.99 5.37 11.99 11.99 0 2.94-1.06 5.62-2.8 7.71z"/></svg>