<svg xmlns="http://www.w3.org/2000/svg" viewBox="0 0 283.46 283.46"><path fill="#194ad5" d="M264.32,155.51v8.47c-.02,.08-.04,.16-.06,.24-2.74,11.85-13.51,20.1-25.67,20.1H46.78c-10.27,0-19.77-5.86-24.01-15.22-2.33-5.14-3.63-10.85-3.63-16.86,0-1.62,.1-3.21,.29-4.79,2.36-20.32,19.63-36.11,40.61-36.11,.8,0,1.59,.03,2.37,.07-2.21-7.04-2.98-14.77-1.88-22.74,3.38-24.48,23.57-42.95,48.24-44.26,26.66-1.42,49.21,17.43,53.59,42.52,5.63-2.93,12.01-4.58,18.78-4.58,21.06,0,38.42,15.91,40.67,36.36,1.94-.31,3.94-.47,5.96-.47,.56,0,1.11,.01,1.66,.04,19.64,.86,34.87,17.57,34.87,37.23Z"/><path fill="#1347ba" d="M153.38,65.96c-7.61-3.72-16.28-5.62-25.42-5.13-24.68,1.31-44.87,19.78-48.25,44.26-.99,7.14-.47,14.08,1.24,20.51,.29,1.1-.56,2.16-1.7,2.16,0,0-.02,0-.02,0-20.98,0-38.25,15.79-40.61,36.11-.2,1.58-.3,3.17-.3,4.79,0,5.44,1.07,10.64,3.01,15.39-8.07-1.67-15.08-6.99-18.55-14.65-2.33-5.14-3.63-10.85-3.63-16.87,0-1.62,.1-3.21,.29-4.79,2.36-20.31,19.64-36.11,40.61-36.11,.8,0,1.6,.03,2.38,.07-2.21-7.04-2.98-14.77-1.88-22.74,3.38-24.48,23.57-42.94,48.25-44.26,18.32-.98,34.71,7.63,44.59,21.26Z" opacity=".33"/><path fill="#1347ba" d="M19.43,147.46c-.2,1.58-.29,3.17-.29,4.79v-4.79h.29Z"/><rect width="141.42" height="35.22" x="81.91" y="120.45" fill="#2ce184" rx="8.43" ry="8.43"/><rect width="141.42" height="35.22" x="81.91" y="162.68" fill="#2ce184" rx="8.43" ry="8.43"/><rect width="141.42" height="35.22" x="81.91" y="203.9" fill="#2ce184" rx="8.43" ry="8.43"/><circle cx="199.54" cy="135.85" r="8.06" fill="#194ad5"/><circle cx="199.54" cy="180.29" r="8.06" fill="#194ad5"/><circle cx="199.54" cy="221.51" r="8.06" fill="#194ad5"/><path fill="#fff" d="M183.52 139.35H93.45c-1.93 0-3.5-1.57-3.5-3.5s1.57-3.5 3.5-3.5h90.07c1.93 0 3.5 1.57 3.5 3.5s-1.57 3.5-3.5 3.5zM183.52 183.79H93.45c-1.93 0-3.5-1.57-3.5-3.5s1.57-3.5 3.5-3.5h90.07c1.93 0 3.5 1.57 3.5 3.5s-1.57 3.5-3.5 3.5zM183.52 225.01H93.45c-1.93 0-3.5-1.57-3.5-3.5s1.57-3.5 3.5-3.5h90.07c1.93 0 3.5 1.57 3.5 3.5s-1.57 3.5-3.5 3.5z"/><path fill="#1347ba" d="M207.6 135.84c0 3.4-2.11 6.31-5.09 7.49.83-1.27 1.31-2.78 1.31-4.4 0-4.45-3.61-8.06-8.06-8.06-1.05 0-2.05.2-2.97.56 1.44-2.2 3.93-3.65 6.75-3.65 4.45 0 8.06 3.61 8.06 8.06zM207.6 180.28c0 3.4-2.11 6.31-5.09 7.49.83-1.27 1.31-2.78 1.31-4.39 0-4.46-3.61-8.07-8.06-8.07-1.05 0-2.05.2-2.97.56 1.44-2.2 3.93-3.65 6.75-3.65 4.45 0 8.06 3.61 8.06 8.06zM207.6 221.5c0 3.41-2.11 6.32-5.09 7.51.83-1.27 1.31-2.79 1.31-4.41 0-4.45-3.61-8.06-8.06-8.06-1.05 0-2.05.2-2.97.57 1.43-2.21 3.92-3.67 6.75-3.67 4.45 0 8.06 3.61 8.06 8.06z" opacity=".85"/></svg>