<svg xmlns="http://www.w3.org/2000/svg" viewBox="0 0 283.46 283.46"><path fill="#194ad5" d="M32.12,138.5c19.29-21.08,108.81-105.73,219.22,.21,2.46,2.36,2.47,6.29,.05,8.7-20.64,20.53-113.5,100.64-219-.43-2.38-2.28-2.49-6.05-.27-8.48Z"/><path fill="#1347ba" d="M250.94,138.32c2.7,2.58,2.7,6.88,.05,9.5-10.76,10.62-39.38,35.67-78.48,45.28,.38-.16,.76-.32,1.13-.48,37.19-15.83,38.38-68.24,1.87-85.59-31.8-15.11-60.74-15.87-85.33-10,40.26-17.07,97.01-19.63,160.75,41.29Z" opacity=".46"/><circle cx="141.96" cy="142.51" r="54.43" fill="#2ce184"/><path fill="#28dd79" d="M198.4,140.6c.36,23.89-14.66,44.31-35.79,52.01,12.7-10.25,20.68-26.11,20.21-43.81-.77-29.17-24.86-52.77-54.04-52.97-6.69-.05-13.1,1.12-19.03,3.28,9.66-7.82,22.06-12.4,35.53-12.09,29.06,.68,52.68,24.51,53.12,53.57Z"/><circle cx="141.96" cy="141.73" r="26.83" fill="#fff"/><g><path fill="#2ce184" d="M261.75 96.03c-1.97 0-3.56-1.59-3.56-3.56v-30.68h-51.41c-1.97 0-3.56-1.59-3.56-3.56s1.59-3.56 3.56-3.56h54.97c1.97 0 3.56 1.59 3.56 3.56v34.24c0 1.97-1.59 3.56-3.56 3.56zM261.75 228.8h-54.97c-1.97 0-3.56-1.59-3.56-3.56s1.59-3.56 3.56-3.56h51.41v-30.68c0-1.97 1.59-3.56 3.56-3.56s3.56 1.59 3.56 3.56v34.24c0 1.97-1.59 3.56-3.56 3.56zM22.21 96.03c-1.97 0-3.56-1.59-3.56-3.56V58.22c0-1.97 1.59-3.56 3.56-3.56h54.97c1.97 0 3.56 1.59 3.56 3.56s-1.59 3.56-3.56 3.56H25.78v30.68c0 1.97-1.59 3.56-3.56 3.56zM77.18 228.8H22.21c-1.97 0-3.56-1.59-3.56-3.56v-34.24c0-1.97 1.59-3.56 3.56-3.56s3.56 1.59 3.56 3.56v30.68h51.41c1.97 0 3.56 1.59 3.56 3.56s-1.59 3.56-3.56 3.56z"/></g></svg>