<svg xmlns="http://www.w3.org/2000/svg" viewBox="0 0 283.46 283.46"><rect width="23.28" height="218.57" x="155.99" y="56.59" fill="#194ad5" rx="11.28" ry="11.28" transform="rotate(-26.12 167.613 165.854)"/><path fill="#1347ba" d="M217.12,263.3c-.17-.58-.39-1.16-.67-1.73L130.17,85.57c-2.74-5.59-9.5-7.9-15.09-5.17l-.66,.32c-.53,.26-1.02,.55-1.48,.86-1.55-5.19,.82-10.9,5.85-13.36l.64-.31c5.6-2.74,12.36-.44,15.1,5.15l86.28,176c2.49,5.08,.81,11.11-3.7,14.22Z" opacity=".46"/><circle cx="128.03" cy="85.09" r="66.93" fill="#194ad5"/><circle cx="128.03" cy="85.09" r="50.87" fill="#2ce184"/><path fill="#fff" d="M119.1 66.1c-1.21-1.09-2.65-1.73-4.31-1.9-1.66-.17-3.2.14-4.61.94-1.36.67-2.44 1.69-3.23 3.06-.79 1.38-1.13 2.82-1 4.34l3.53 43.08c-.03.52.11 1.08.4 1.66.56 1.14 1.45 1.95 2.68 2.45 1.23.5 2.5.42 3.82-.22.86-.42 1.54-1.05 2.04-1.89.49-.83.7-1.74.61-2.72l-.65-7.54 20.72-10.16 5.49 5.16c.72.67 1.56 1.06 2.52 1.18.96.12 1.87-.03 2.74-.45 1.32-.65 2.15-1.63 2.48-2.95.34-1.32.25-2.5-.26-3.55-.22-.45-.56-.91-1.01-1.36l-31.96-29.14zm-1.99 33.01l-2.45-25.51 18.6 17.59-16.15 7.92zM143.46 50.27c-1.15-.39-2.3-.31-3.43.25s-1.91 1.42-2.33 2.58c-.42 1.16-.36 2.29.18 3.38l18.78 38.3c.56 1.14 1.41 1.9 2.56 2.29 1.15.39 2.27.32 3.36-.21 1.18-.58 1.98-1.45 2.4-2.61.42-1.16.35-2.31-.21-3.45l-18.78-38.3c-.54-1.09-1.38-1.84-2.53-2.23z"/></svg>