<svg xmlns="http://www.w3.org/2000/svg" viewBox="0 0 283.46 283.46"><path fill="#194ad5" d="M208.9,163.85v-42c0-.96-.3-1.89-.87-2.81-5.16-8.31-32.79-14.65-66.13-14.65s-60.98,6.34-66.14,14.65c-.57,.92-.87,1.85-.87,2.81v42H208.9Z"/><ellipse cx="141.9" cy="162.24" fill="#2ce184" rx="67" ry="17.45"/><path fill="#28dd79" d="M75.36,162.23c0-3.52,4.01-6.8,10.92-9.55-.6,.94-.91,1.89-.91,2.88,0,9.63,29.99,17.45,66.99,17.45,23.47,0,44.11-3.15,56.07-7.9-5.26,8.27-32.85,14.58-66.09,14.58-37,0-66.99-7.82-66.99-17.46Z"/><path fill="#194ad5" d="M74.95,122.72c.97-9.43,30.58-16.99,66.95-16.99s66.09,7.58,66.96,17.04c.01,0,.03,0,.04,0v-39.94s0-.02,0-.04,0-.02,0-.04v-.17c0-.94-.31-1.86-.88-2.61h0c-5.17-8.3-32.79-14.64-66.12-14.64s-60.95,6.34-66.12,14.64h0c-.59,1.27-.89,2.65-.89,4.04v38.71s.03,0,.05,0Z"/><path fill="#1347ba" d="M74.91,122.75v-38.71c0-1.4,.31-2.77,.89-4.04,5.17-8.3,32.8-14.64,66.13-14.64,16.66,0,31.89,1.59,43.62,4.21,8.59,1.92,15.28,4.4,19.27,7.23-2.01-.59-4.17-1.14-6.47-1.66-11.71-2.62-26.96-4.21-43.62-4.21-33.31,0-60.95,6.34-66.12,14.64-.58,1.26-.89,2.64-.89,4.04v23.35c-7.71,2.76-12.38,6.13-12.76,9.79h-.05Z" opacity=".46"/><path fill="#1347ba" d="M74.91,162.12v-38.71c0-1.4,.31-2.77,.89-4.04,5.17-8.3,32.8-14.64,66.13-14.64,16.66,0,31.89,1.59,43.62,4.21,8.59,1.92,15.28,4.4,19.27,7.23-2.01-.59-4.17-1.14-6.47-1.66-11.71-2.62-26.96-4.21-43.62-4.21-33.31,0-60.95,6.34-66.12,14.64-.58,1.26-.89,2.64-.89,4.04v23.35c-7.71,2.76-12.38,6.13-12.76,9.79h-.05Z" opacity=".46"/><path fill="#194ad5" d="M74.95,83.19c.97-9.43,30.58-16.99,66.95-16.99s66.09,7.58,66.96,17.04c.01,0,.03,0,.04,0V43.3s0-.02,0-.04,0-.02,0-.04v-.17c0-.94-.31-1.86-.88-2.61h0c-5.17-8.3-32.79-14.64-66.12-14.64s-60.95,6.34-66.12,14.64h0c-.59,1.27-.89,2.65-.89,4.04v38.71s.03,0,.05,0Z"/><path fill="#1347ba" d="M74.91,83.22V44.51c0-1.4,.31-2.77,.89-4.04,5.17-8.3,32.8-14.64,66.13-14.64,16.66,0,31.89,1.59,43.62,4.21,8.59,1.92,15.28,4.4,19.27,7.23-2.01-.59-4.17-1.14-6.47-1.66-11.71-2.62-26.96-4.21-43.62-4.21-33.31,0-60.95,6.34-66.12,14.64-.58,1.26-.89,2.64-.89,4.04v23.35c-7.71,2.76-12.38,6.13-12.76,9.79h-.05Z" opacity=".46"/><path fill="#194ad5" d="M235.41,188.39H48.39c-2.08,0-3.76,1.69-3.76,3.76v28.7c0,2.08,1.69,3.76,3.76,3.76s3.76-1.69,3.76-3.76v-24.93h87.83v24.93c0,2.08,1.69,3.76,3.76,3.76s3.76-1.69,3.76-3.76v-24.93h84.13v24.93c0,2.08,1.69,3.76,3.76,3.76s3.76-1.69,3.76-3.76v-28.7c0-2.08-1.69-3.76-3.76-3.76Z"/><rect width="59.72" height="36.81" x="204.8" y="220.85" fill="#2ce184" rx="6.13" ry="6.13"/><rect width="59.72" height="36.81" x="111.7" y="220.85" fill="#2ce184" rx="6.13" ry="6.13"/><rect width="59.72" height="36.81" x="18.6" y="220.85" fill="#2ce184" rx="6.13" ry="6.13"/><path fill="#28dd79" d="M264.87 226.98v24.55c0 3.39-2.74 6.13-6.13 6.13h-3.99v-28.5h-49.61v-2.17c0-3.39 2.75-6.13 6.14-6.13h47.46c3.39 0 6.13 2.74 6.13 6.13zM171.76 226.98v24.55c0 3.39-2.74 6.13-6.13 6.13h-3.99v-28.5h-49.6v-2.17c0-3.39 2.74-6.13 6.13-6.13h47.46c3.39 0 6.13 2.74 6.13 6.13zM78.67 226.98v24.55c0 3.39-2.75 6.13-6.14 6.13h-3.99v-28.5H18.94v-2.17c0-3.39 2.75-6.13 6.14-6.13h47.45c3.39 0 6.14 2.74 6.14 6.13z"/></svg>