<svg xmlns="http://www.w3.org/2000/svg" viewBox="0 0 283.46 283.46"><path fill="#194ad5" d="M174.82 184.68c0 2.05-.78 3.98-2.33 5.8-1.56 1.82-3.62 2.73-6.19 2.73-1.69 0-3.24-.47-4.66-1.4s-2.44-2.2-3.06-3.8l-4.66-12.38h-40.48l-4.8 12.38c-.62 1.6-1.65 2.87-3.06 3.8-1.43.93-2.98 1.4-4.67 1.4-2.57 0-4.64-.87-6.19-2.6-1.56-1.73-2.33-3.71-2.33-5.93 0-1.15.22-2.12.66-2.93l27.7-70.58c.98-2.48 2.62-4.5 4.93-6.06 2.3-1.55 4.79-2.33 7.46-2.33 2.84-.17 5.5.51 7.99 2.07 2.49 1.55 4.26 3.66 5.33 6.32l27.84 70.58c.35 1.06.53 2.05.53 2.93zm-25.43-23.04l-15.71-42.08-15.84 42.08h31.56zM201.51 190.95c-1.55 1.51-3.48 2.26-5.79 2.26-2.13 0-3.95-.76-5.46-2.26-1.51-1.51-2.26-3.37-2.26-5.59V110.51c0-2.13.77-3.96 2.33-5.46 1.55-1.51 3.44-2.26 5.66-2.26s4.09.76 5.6 2.26c1.51 1.51 2.26 3.33 2.26 5.46v74.84c0 2.22-.77 4.09-2.33 5.59z"/><g opacity=".68"><path fill="#1347ba" d="M174.29 181.84l-27.84-70.59c-1.06-2.65-2.84-4.76-5.32-6.31-2.49-1.56-5.15-2.24-7.99-2.07-2.67 0-5.15.78-7.46 2.34-.03.02-.05.04-.07.05 1.26-.41 2.58-.61 3.93-.61 2.84-.17 5.51.51 7.99 2.07 2.49 1.55 4.27 3.66 5.33 6.31l27.83 70.59c.35 1.06.54 2.04.54 2.93 0 2.04-.78 3.98-2.33 5.8-.25.28-.5.55-.76.78 1.74-.35 3.19-1.2 4.36-2.56 1.54-1.82 2.33-3.75 2.33-5.8 0-.88-.18-1.86-.53-2.93zM201.58 105.13c-1.51-1.5-3.37-2.26-5.6-2.26-2.05 0-3.83.65-5.3 1.95.55-.12 1.12-.17 1.71-.17 2.22 0 4.09.76 5.6 2.26 1.51 1.51 2.26 3.33 2.26 5.47v74.84c0 2.22-.78 4.09-2.34 5.59-.11.11-.23.22-.35.3 1.51-.3 2.83-1 3.93-2.08 1.56-1.5 2.34-3.37 2.34-5.59V110.6c0-2.14-.75-3.96-2.26-5.47z"/></g><path fill="#1347ba" d="M129.4,237.86c-.59,0-1.17-.16-1.68-.48l-89.09-55.27c-1.48-.92-1.95-2.85-1.05-4.34L116.03,47.47c.83-1.38,2.57-1.92,4.04-1.26l124.92,56.62c1.23,.56,1.98,1.84,1.85,3.19l-10.49,112.72c-.13,1.45-1.24,2.62-2.68,2.85l-103.78,16.24c-.16,.03-.33,.04-.49,.04Zm-84.75-59.5l85.42,52.99,100.17-15.67,10.05-108L120.02,53.17,44.66,178.37Z"/><circle cx="118.76" cy="49.11" r="22.52" fill="#2ce184"/><path fill="#28dd79" d="M134.23,65.31c.14-.95,.2-1.93,.2-2.91,0-12.43-10.08-22.51-22.51-22.51-6.05,0-11.54,2.39-15.57,6.27,1.41-11.07,10.86-19.61,22.31-19.61,12.43,0,22.51,10.08,22.51,22.51,0,6.39-2.66,12.16-6.94,16.25Z"/><circle cx="243.67" cy="108.75" r="21.64" fill="#2ce184"/><path fill="#28dd79" d="M259.15,123.88c.89-2.36,1.38-4.92,1.38-7.6,0-11.95-9.69-21.64-21.64-21.64-6.07,0-11.55,2.5-15.48,6.52,3.07-8.2,10.98-14.05,20.27-14.05,11.95,0,21.64,9.69,21.64,21.64,0,5.89-2.35,11.22-6.17,15.13Z"/><circle cx="233.18" cy="218.45" r="21.35" fill="#2ce184"/><path fill="#28dd79" d="M249.5,232.07c.17-1.1,.26-2.22,.26-3.36,0-11.78-9.56-21.34-21.34-21.34-6.62,0-12.54,3.02-16.45,7.74,1.6-10.2,10.43-18.01,21.08-18.01,11.79,0,21.35,9.56,21.35,21.35,0,5.18-1.84,9.92-4.9,13.62Z"/><circle cx="129.4" cy="234.68" r="22.23" fill="#2ce184"/><path fill="#28dd79" d="M144.79,251.21c1.11-2.64,1.73-5.54,1.73-8.6,0-12.28-9.96-22.23-22.23-22.23-5.97,0-11.39,2.35-15.38,6.19,3.36-8.01,11.28-13.64,20.51-13.64,12.28,0,22.23,9.96,22.23,22.23,0,6.31-2.63,12.01-6.85,16.05Z"/><circle cx="40.32" cy="179.41" r="22.17" fill="#2ce184"/><path fill="#28dd79" d="M62.48,179.15c0,7.39-3.61,13.93-9.16,17.94,1.91-3.27,3-7.07,3-11.13,0-12.24-9.92-22.16-22.16-22.16-4.86,0-9.36,1.56-13.01,4.22,3.83-6.6,10.98-11.03,19.16-11.03,12.25,0,22.17,9.92,22.17,22.16Z"/></svg>