<svg xmlns="http://www.w3.org/2000/svg" data-name="Layer 39" viewBox="0 0 512 512"><defs><linearGradient id="b" x1="358.95" x2="153.05" y1="358.95" y2="153.06" gradientUnits="userSpaceOnUse"><stop offset="0" stop-color="#13b601"/><stop offset=".49" stop-color="#13b601"/><stop offset=".68" stop-color="#5bce47"/><stop offset=".9" stop-color="#abe995"/><stop offset="1" stop-color="#cbf4b4"/></linearGradient><linearGradient id="c" x1="208.55" x2="130.34" y1="295.11" y2="216.9" gradientUnits="userSpaceOnUse"><stop offset="0" stop-color="#cbf4b4"/><stop offset=".57" stop-color="#fff"/><stop offset="1" stop-color="#fff"/></linearGradient><radialGradient id="a" cx="256" cy="338.32" r="200.83" fx="256" fy="338.32" gradientTransform="matrix(1 0 0 .45 0 257.8)" gradientUnits="userSpaceOnUse"><stop offset="0" stop-color="#13b601" stop-opacity=".6"/><stop offset="1" stop-color="#13b601" stop-opacity="0"/></radialGradient></defs><path fill="#e5f4d9" d="M496.52,129.86c-13.43-49.48-64.89-100.93-114.37-114.37C351.82,7.92,311.17.13,256,0c-55.17.14-95.81,7.92-126.15,15.49C80.38,28.93,28.92,80.38,15.49,129.86,7.92,160.19.14,200.84,0,256c.14,55.17,7.92,95.81,15.49,126.15,13.44,49.48,64.89,100.93,114.37,114.37,30.34,7.57,70.98,15.35,126.15,15.49,55.16-.14,95.81-7.92,126.15-15.49,49.48-13.44,100.93-64.89,114.37-114.37,7.57-30.33,15.35-70.98,15.49-126.15-.14-55.17-7.92-95.81-15.49-126.15Z"/><path fill="url(#a)" d="M444.68,366.22c-10.54-17.58-50.91-35.87-89.72-40.64-23.8-2.69-55.68-5.46-98.96-5.5-43.28.05-75.17,2.81-98.96,5.5-38.81,4.78-79.18,23.06-89.72,40.64-5.94,10.78-12.04,25.22-12.15,44.83.11,19.6,6.21,34.05,12.15,44.83,10.54,17.58,50.91,35.87,89.72,40.64,23.8,2.69,55.69,5.46,98.96,5.5,43.28-.05,75.16-2.82,98.96-5.5,38.82-4.77,79.18-23.06,89.72-40.64,5.93-10.78,12.04-25.22,12.15-44.83-.11-19.6-6.22-34.05-12.15-44.83Z"/><g><path fill="url(#b)" d="M342.46,168.36c-57.63-1.84-115.3-1.84-172.92,0-46.22,1.9-83.65,42.01-83.65,87.65h0c0,45.64,37.43,85.75,83.65,87.65,57.63,1.84,115.3,1.84,172.92,0,46.22-1.9,83.65-42.01,83.65-87.65h0c0-45.63-37.43-85.75-83.65-87.65Z"/><path fill="url(#c)" d="M169.45,311.31c-30.54,0-55.31-24.76-55.31-55.31s24.76-55.31,55.31-55.31,55.31,24.76,55.31,55.31-24.76,55.31-55.31,55.31Z"/></g></svg>