<svg xmlns="http://www.w3.org/2000/svg" viewBox="0 0 64 64"><linearGradient id="a" x1="32.324" x2="31.82" y1="-23.678" y2="62.902" gradientUnits="userSpaceOnUse"><stop offset=".076" stop-color="#fff"/><stop offset="1" stop-color="#ff4129"/></linearGradient><path fill="url(#a)" d="M63.3 47.6c0 8.6-7 15.6-15.6 15.6H16.4C7.8 63.2.8 56.2.8 47.6V16.4C.8 7.8 7.8.8 16.4.8h31.3c8.6 0 15.6 7 15.6 15.6v31.2z"/><linearGradient id="b" x1="32.124" x2="31.872" y1="-31.408" y2="98.462" gradientUnits="userSpaceOnUse"><stop offset=".052" stop-color="#fff" stop-opacity="0"/><stop offset="1" stop-color="#fff"/></linearGradient><path fill="url(#b)" d="M55.9 16.4v31.3c0 4.5-3.7 8.2-8.2 8.2H16.4c-4.5 0-8.2-3.7-8.2-8.2V16.4c0-4.5 3.7-8.2 8.2-8.2h31.3c4.5-.1 8.2 3.6 8.2 8.2z"/><linearGradient id="c" x1="17.918" x2="27.104" y1="10.72" y2="10.909" gradientUnits="userSpaceOnUse"><stop offset="0" stop-color="#fff" stop-opacity="0"/><stop offset="1" stop-color="#fff"/></linearGradient><path fill="url(#c)" d="M25.9 10.8c0 .9-9 .3-9 0s9-.9 9 0z"/><linearGradient id="d" x1="17.92" x2="27.106" y1="10.633" y2="10.822" gradientUnits="userSpaceOnUse"><stop offset="0" stop-color="#fff" stop-opacity="0"/><stop offset="1" stop-color="#fff"/></linearGradient><circle cx="27.1" cy="10.8" r=".4" fill="url(#d)"/><linearGradient id="e" x1="20.124" x2="20.973" y1="21.233" y2="49.83" gradientUnits="userSpaceOnUse"><stop offset=".138" stop-color="#fff" stop-opacity="0"/><stop offset="1" stop-color="#fff"/></linearGradient><path fill="url(#e)" d="M19.2 43.1h4.7V31.7l-6.7-5v14.5c0 1 .9 1.9 2 1.9z"/><linearGradient id="f" x1="43.001" x2="43.85" y1="20.553" y2="49.151" gradientUnits="userSpaceOnUse"><stop offset=".138" stop-color="#fff" stop-opacity="0"/><stop offset="1" stop-color="#fff"/></linearGradient><path fill="url(#f)" d="M40.1 43.1h4.7c1.1 0 2-.9 2-2V26.6l-6.7 5v11.5z"/><linearGradient id="g" x1="28.394" x2="50.574" y1="26.975" y2="25.843" gradientUnits="userSpaceOnUse"><stop offset=".138" stop-color="#fff" stop-opacity="0"/><stop offset="1" stop-color="#fff"/></linearGradient><path fill="url(#g)" d="M40.1 22.9v8.7l6.7-5v-2.7c0-2.5-2.8-3.9-4.8-2.4l-1.9 1.4z"/><linearGradient id="h" x1="15.71" x2="45.629" y1="29.617" y2="30.655" gradientUnits="userSpaceOnUse"><stop offset=".138" stop-color="#fff" stop-opacity="0"/><stop offset="1" stop-color="#fff"/></linearGradient><path fill="url(#h)" fill-rule="evenodd" d="M23.9 31.7V23l8.1 6 8.1-6v8.7l-8.1 6-8.1-6z" clip-rule="evenodd"/><linearGradient id="i" x1="11.875" x2="27.07" y1="25.329" y2="26.744" gradientUnits="userSpaceOnUse"><stop offset=".138" stop-color="#fff" stop-opacity="0"/><stop offset="1" stop-color="#fff"/></linearGradient><path fill="url(#i)" d="M17.2 23.9v2.7l6.7 5v-8.7L22 21.5c-1.9-1.5-4.8-.1-4.8 2.4z"/></svg>