<svg xmlns="http://www.w3.org/2000/svg" viewBox="0 0 38.51 38.51" id="gmail">
  <g>
    <g>
      <rect width="38.51" height="38.51" fill="#f2f2f2" rx="6.97" ry="6.97"></rect>
      <path fill="#c6c6c6" d="M38.51,31.54v-12.88c-2.6-2.6-5.19-5.2-7.79-7.79-.82-.82-2.19-1.06-3.26-.25l-1.55,1.16-6.65,4.99-6.65-4.99-1.55-1.16c-1.65-1.23-3.99-.06-3.99,1.99v14.13c0,.5.22.94.57,1.24,3.51,3.51,7.02,7.02,10.53,10.53h13.38c3.83,0,6.97-3.14,6.97-6.97Z"></path>
      <g>
        <path fill="#4285f4" d="M8.72,28.4h3.88v-9.42l-5.54-4.16v11.91c0,.92.75,1.66,1.66,1.66"></path>
        <path fill="#34a853" d="M25.9,28.4h3.88c.92,0,1.66-.75,1.66-1.66v-11.91l-5.54,4.16"></path>
        <path fill="#fbbc04" d="M25.9,11.77v7.2l5.54-4.16v-2.22c0-2.06-2.35-3.23-3.99-1.99"></path>
        <path fill="#ea4335" d="M12.6,18.98v-7.2l6.65,4.99,6.65-4.99v7.2l-6.65,4.99"></path>
        <path fill="#c5221f" d="M7.06,12.61v2.22l5.54,4.16v-7.2l-1.55-1.16c-1.65-1.23-3.99-.06-3.99,1.99"></path>
      </g>
    </g>
  </g>
</svg>
