<svg xmlns="http://www.w3.org/2000/svg" xml:space="preserve" id="Layer_1" width="512" height="512" x="0" y="0" enable-background="new 0 0 512 512" version="1.1" viewBox="0 0 512 512">
  <linearGradient id="SVGID_1_" x1="256" x2="256" y1="509.732" y2="1.405" gradientUnits="userSpaceOnUse">
    <stop offset="0" style="stop-color:#00ffed"/>
    <stop offset=".99" style="stop-color:#9d00c6"/>
  </linearGradient>
  <path fill="url(#SVGID_1_)" d="M492.155,239.611c0-13.784-10.108-25.247-23.301-27.381l-22.665-47.427
	c6.41-5.881,10.437-14.32,10.437-23.684c0-17.733-14.427-32.155-32.158-32.155c-4.288,0-8.377,0.85-12.122,2.38l-48.22-32.82
	c1.097-3.093,1.699-6.417,1.699-9.88c0-16.346-13.3-29.646-29.647-29.646c-12.165,0-22.637,7.367-27.202,17.871l-79.896-3.652
	c-3.018-14.673-16.034-25.742-31.588-25.742c-17.782,0-32.248,14.466-32.248,32.246c0,3.329,0.507,6.541,1.448,9.564L118.006,93.98
	c-5.444-6.728-13.762-11.041-23.071-11.041c-16.36,0-29.67,13.308-29.67,29.669c0,6.319,1.992,12.178,5.371,16.995l-22.572,31.749
	c-1.102-0.15-2.225-0.234-3.367-0.234c-13.704,0-24.852,11.148-24.852,24.854c0,11.457,7.797,21.124,18.363,23.985l1.882,37.292
	c-10.862,5.193-18.385,16.289-18.385,29.109c0,17.78,14.466,32.246,32.248,32.246c9.807,0,18.599-4.406,24.518-11.335l28.702,8.723
	c-0.084,0.796-0.13,1.604-0.13,2.423c0,12.555,10.218,22.769,22.775,22.769c3.694,0,7.183-0.89,10.272-2.458l24.662,19.013
	c-0.504,2.006-0.775,4.104-0.775,6.265c0,14.19,11.544,25.736,25.734,25.736c13.924,0,25.294-11.113,25.722-24.932l26.403-6.755
	c4.355,10.032,14.354,17.067,25.97,17.067c0.207,0,0.411-0.011,0.616-0.016l23.718,75.702c-5.321,4.561-8.703,11.324-8.703,18.865
	c0,13.705,11.147,24.854,24.852,24.854c13.703,0,24.852-11.148,24.852-24.854c0-1.642-0.164-3.245-0.47-4.798l39.181-23.134
	c3.292,1.369,6.9,2.129,10.683,2.129c15.39,0,27.914-12.52,27.914-27.912c0-4.485-1.069-8.722-2.958-12.48l22.023-31.166
	c3.097,1.197,6.457,1.86,9.97,1.86c15.298,0,27.745-12.444,27.745-27.746c0-9.613-4.917-18.096-12.365-23.076l14.667-46.473
	C482.39,264.465,492.155,253.162,492.155,239.611z M478.596,239.611c0,7.822-6.364,14.19-14.188,14.19
	c-7.824,0-14.188-6.368-14.188-14.19c0-7.822,6.364-14.186,14.188-14.186C472.231,225.425,478.596,231.789,478.596,239.611z
	 M454.527,213.693c-4.449,1.701-8.351,4.513-11.364,8.098l-59.846-11.193c0.003-0.184,0.014-0.365,0.014-0.55
	c0-7.632-2.171-14.763-5.92-20.819l26.471-23.437c5.582,4.665,12.761,7.479,20.587,7.479c3.483,0,6.835-0.564,9.979-1.593
	L454.527,213.693z M382.533,378.045c-0.886,0-1.761,0.046-2.626,0.127l-11.751-44.641c5.699-3.033,10.49-7.556,13.841-13.052
	l30.13,11.329c-0.253,1.502-0.392,3.043-0.392,4.616c0,6.893,2.532,13.201,6.707,18.058l-20.121,28.474
	C393.827,379.861,388.389,378.045,382.533,378.045z M329.116,301.889c0-12.279,9.988-22.272,22.267-22.272
	s22.267,9.993,22.267,22.272c0,12.279-9.988,22.268-22.267,22.268S329.116,314.167,329.116,301.889z M267.806,308.524
	c-2.257,0-4.451,0.273-6.557,0.775l-21.515-36.879c7.342-6.461,11.988-15.916,11.988-26.441c0-0.311-0.016-0.618-0.023-0.926
	l58.888-13.113c5.959,8.971,15.466,15.383,26.502,17.23l0.251,19.761c-12.795,5.473-21.784,18.185-21.784,32.958
	c0,1.813,0.138,3.594,0.399,5.336l-26.663,11.216C284.099,312.377,276.396,308.524,267.806,308.524z M140.291,288.202l15.127-85.669
	c0.369,0.013,0.737,0.028,1.109,0.028c5.368,0,10.423-1.364,14.838-3.763l18.53,24.102c-5.377,6.188-8.643,14.256-8.643,23.078
	c0,4.959,1.035,9.679,2.892,13.962l-37.458,33.189C144.873,291.131,142.706,289.459,140.291,288.202z M197.494,91.972
	c6.606,0,12.752-1.999,17.871-5.42l30.613,29.764c-5.06,6.279-8.098,14.251-8.098,22.924c0,0.831,0.038,1.653,0.093,2.471
	l-54.459,14.096c-2.708-4.672-6.592-8.579-11.248-11.313l17.148-53.547C191.996,91.615,194.704,91.972,197.494,91.972z
	 M310.268,83.026l-20.087,23.152c-4.76-2.269-10.081-3.542-15.695-3.542c-6.604,0-12.8,1.767-18.156,4.84l-31.519-30.644
	c1.915-3.047,3.333-6.435,4.143-10.051l77.63,3.548C306.842,74.916,308.149,79.225,310.268,83.026z M395.515,155.091l-27.097,23.992
	c-4.897-3.924-10.737-6.713-17.126-7.963l-7.688-73.772c5.037-1.304,9.554-3.906,13.183-7.42l43.733,29.766
	c-5.097,5.692-8.204,13.201-8.204,21.426C392.316,146.123,393.466,150.863,395.515,155.091z M343.655,236.167
	c-14.401,0-26.117-11.716-26.117-26.119s11.716-26.118,26.117-26.118s26.116,11.715,26.116,26.118S358.056,236.167,343.655,236.167z
	 M305.074,219.278l-56.331,12.544c-5.462-12.399-17.862-21.08-32.256-21.08c-5.722,0-11.125,1.38-15.908,3.811l-18.972-24.677
	c3.827-5.177,6.095-11.572,6.095-18.489c0-0.888-0.046-1.764-0.119-2.633l53.792-13.923c5.867,12.407,18.5,21.013,33.11,21.013
	c7.403,0,14.295-2.216,20.062-6.009l16.716,17.345c-4.581,6.468-7.285,14.356-7.285,22.869
	C303.979,213.227,304.365,216.314,305.074,219.278z M297.532,139.239c0,12.709-10.338,23.049-23.047,23.049
	s-23.046-10.34-23.046-23.049c0-12.708,10.337-23.048,23.046-23.048S297.532,126.531,297.532,139.239z M330.003,97.637l7.628,73.194
	c-6.17,0.944-11.871,3.323-16.767,6.771l-16.556-17.177c4.265-5.985,6.783-13.294,6.783-21.186c0-9.674-3.78-18.478-9.931-25.029
	l18.305-21.098C322.6,95.26,326.165,96.82,330.003,97.637z M174.144,171.387c0,9.713-7.903,17.618-17.616,17.618
	c-9.714,0-17.617-7.905-17.617-17.618c0-9.714,7.903-17.619,17.617-17.619C166.241,153.769,174.144,161.673,174.144,171.387z
	 M194.812,245.979c0-11.956,9.724-21.681,21.676-21.681c11.952,0,21.675,9.726,21.675,21.681c0,11.952-9.724,21.673-21.675,21.673
	C204.536,267.652,194.812,257.931,194.812,245.979z M417.609,319.386l-30.892-11.615c0.318-1.915,0.491-3.878,0.491-5.882
	c0-19.754-16.072-35.828-35.826-35.828c-0.175,0-0.347,0.011-0.521,0.013l-0.216-16.98c5.453-0.974,10.526-3.058,14.969-6.022
	l55.706,72.406C419.961,316.657,418.718,317.966,417.609,319.386z M443.067,141.119c0,10.253-8.342,18.596-18.598,18.596
	c-10.253,0-18.594-8.342-18.594-18.596s8.34-18.6,18.594-18.6C434.725,122.52,443.067,130.866,443.067,141.119z M336.18,52.554
	c8.871,0,16.088,7.219,16.088,16.09c0,8.87-7.217,16.089-16.088,16.089c-8.87,0-16.087-7.219-16.087-16.089
	C320.092,59.773,327.31,52.554,336.18,52.554z M197.494,41.031c10.305,0,18.688,8.386,18.688,18.69
	c0,10.309-8.383,18.694-18.688,18.694c-10.304,0-18.688-8.386-18.688-18.694C178.805,49.417,187.189,41.031,197.494,41.031z
	 M173.374,81.097c1.164,1.312,2.43,2.529,3.79,3.637l-17.81,55.614c-0.932-0.084-1.874-0.134-2.827-0.134
	c-5.643,0-10.935,1.514-15.505,4.146l-19.372-18.851c1.893-3.902,2.956-8.279,2.956-12.9c0-2.204-0.25-4.35-0.708-6.417
	L173.374,81.097z M94.935,96.496c8.884,0,16.111,7.227,16.111,16.113s-7.227,16.113-16.111,16.113s-16.111-7.227-16.111-16.113
	S86.051,96.496,94.935,96.496z M80.809,138.694c4.203,2.285,9.016,3.583,14.126,3.583c6.824,0,13.112-2.321,18.129-6.207
	L131,153.524c-2.718,3.871-4.581,8.381-5.307,13.261l-58.396,8.87c-1.54-3.361-3.805-6.321-6.597-8.678L80.809,138.694z
	 M33.404,185.971c0-6.23,5.066-11.298,11.292-11.298s11.292,5.068,11.292,11.298c0,6.226-5.066,11.294-11.292,11.294
	S33.404,192.197,33.404,185.971z M51.773,209.789c9.311-2.771,16.346-10.86,17.576-20.73l57.322-8.707
	c0.668,2.221,1.579,4.337,2.7,6.32l-56.782,63.395c-5.267-3.744-11.697-5.955-18.637-5.955c-0.149,0-0.297,0.009-0.446,0.011
	L51.773,209.789z M53.953,295.048c-10.305,0-18.688-8.386-18.688-18.69s8.383-18.69,18.688-18.69
	c10.305,0,18.688,8.386,18.688,18.69S64.258,295.048,53.953,295.048z M84.992,285.08c0.781-2.776,1.208-5.7,1.208-8.723
	c0-5.921-1.611-11.469-4.408-16.243l56.71-63.315c1.193,0.849,2.447,1.615,3.756,2.292l-15.316,86.739
	c-5.682,0.719-10.715,3.537-14.299,7.654L84.992,285.08z M129.818,317.627c-5.082,0-9.215-4.134-9.215-9.213
	c0-5.083,4.134-9.217,9.215-9.217c5.081,0,9.215,4.134,9.215,9.217C139.033,313.494,134.898,317.627,129.818,317.627z
	 M189.711,366.184c-6.713,0-12.174-5.466-12.174-12.181s5.461-12.18,12.174-12.18c6.719,0,12.183,5.465,12.183,12.18
	S196.43,366.184,189.711,366.184z M189.711,328.267c-7.103,0-13.542,2.893-18.203,7.563l-21.62-16.667
	c1.724-3.204,2.704-6.863,2.704-10.749c0-0.774-0.04-1.54-0.116-2.295l39.429-34.935c6.354,6.196,15.028,10.023,24.583,10.023
	c4.041,0,7.92-0.692,11.539-1.95l21.163,36.278c-5.411,4.738-9.003,11.497-9.589,19.09l-27.332,6.993
	C207.884,333.668,199.417,328.267,189.711,328.267z M253.066,336.822c0-8.13,6.612-14.742,14.74-14.742
	c8.125,0,14.736,6.612,14.736,14.742c0,8.129-6.61,14.742-14.736,14.742C259.679,351.564,253.066,344.952,253.066,336.822z
	 M281.519,361.563c8.688-4.835,14.583-14.11,14.583-24.741c0-2.145-0.248-4.231-0.702-6.24l25.104-10.56
	c2.912,4.939,6.973,9.12,11.815,12.176L308.607,434.83c-0.107-0.001-0.212-0.008-0.319-0.008c-1.268,0-2.513,0.097-3.729,0.28
	L281.519,361.563z M308.288,470.969c-6.226,0-11.292-5.068-11.292-11.298c0-6.227,5.065-11.294,11.292-11.294
	s11.292,5.067,11.292,11.294C319.58,465.901,314.514,470.969,308.288,470.969z M321.623,438.718l23.466-101.57
	c2.045,0.364,4.146,0.565,6.294,0.565c1.284,0,2.552-0.071,3.801-0.204l11.902,45.214c-7.508,5.007-12.466,13.55-12.466,23.233
	c0,6.33,2.121,12.171,5.685,16.858l-33.813,19.965C325.052,441.228,323.415,439.862,321.623,438.718z M382.533,420.312
	c-3.981,0-7.587-1.631-10.19-4.259l-0.151-0.257l-0.053,0.031c-2.446-2.575-3.958-6.046-3.958-9.871
	c0-7.917,6.439-14.355,14.354-14.355c7.915,0,14.354,6.439,14.354,14.355C396.887,413.873,390.448,420.312,382.533,420.312z
	 M439.482,350.614c-7.823,0-14.188-6.368-14.188-14.19c0-7.822,6.364-14.186,14.188-14.186c7.823,0,14.185,6.364,14.185,14.186
	C453.667,344.246,447.305,350.614,439.482,350.614z M439.482,308.682c-1.992,0-3.935,0.215-5.809,0.617L375.5,233.685
	c2.206-2.963,4.005-6.245,5.322-9.76l56.326,10.534c-0.315,1.67-0.488,3.391-0.488,5.151c0,12.227,7.953,22.623,18.954,26.31
	l-13.536,42.887C441.223,308.728,440.358,308.682,439.482,308.682z"/>
</svg>
