<?xml version="1.0" encoding="utf-8"?>
<svg xmlns="http://www.w3.org/2000/svg" viewBox="89.272 77.725 321.456 344.549" width="321.456px" height="344.549px"><path id="path28" d="M 410.728 322.997 L 378.611 322.997 L 378.611 369.711 L 355.247 369.711 L 355.247 398.91 L 299.771 398.91 L 299.771 422.273 L 171.299 422.273 L 171.299 398.91 L 118.739 398.91 L 118.739 369.711 L 89.538 369.711 L 89.538 322.997 L 139.858 322.934 L 139.812 297.748 L 225.444 298.813 L 225.995 272.455 L 280.35 271.905 L 280.901 234.572 L 225.995 234.021 L 225.995 207.118 L 140.887 206.569 L 140.887 180.214 L 89.272 179.661 L 89.538 139.041 L 118.739 139.041 L 118.739 101.081 L 171.299 101.081 L 171.299 77.724 L 299.771 77.724 L 299.771 101.081 L 355.247 101.081 L 355.247 139.041 L 378.611 139.041 L 378.611 182.841 L 410.728 182.841 L 410.728 322.997 Z" style="fill: rgb(255, 242, 0); fill-opacity: 1; fill-rule: nonzero; stroke: rgb(0, 0, 0); stroke-width: 3px; transform-origin: 250px 249.999px;" transform="matrix(-1, 0, 0, -1, 0, 0)"/></svg>