<svg xmlns="http://www.w3.org/2000/svg" fill-rule="evenodd" stroke-linejoin="round" stroke-miterlimit="2" clip-rule="evenodd" viewBox="0 0 48 48"><path fill="url(#_Linear1)" d="M452.5,364C452.5,364 452.5,364 452.5,364C452.5,358.753 448.247,354.5 443,354.5C436.532,354.5 427.464,354.736 421,354.5C415.428,354.297 411.404,358.923 411.5,364C411.599,369.246 415.753,373.5 421,373.5C427.468,373.5 436.532,373.5 443,373.5C448.247,373.5 452.5,369.247 452.5,364ZM422,358.5C418.964,358.5 416.5,360.964 416.5,364C416.5,367.036 418.964,369.5 422,369.5C425.036,369.5 427.5,367.036 427.5,364C427.5,360.964 425.036,358.5 422,358.5Z" transform="translate(-407.999 -339.997)"/><defs><linearGradient id="_Linear1" x2="1" gradientTransform="matrix(29 -15 15 29 417.999 371.997)" gradientUnits="userSpaceOnUse"><stop offset="0" stop-color="#0056e0"/><stop offset="0" stop-color="#0056e0"/><stop offset="0" stop-color="#0056e0"/><stop offset=".01" stop-color="#0056e0"/><stop offset="1" stop-color="#00e5b8"/></linearGradient></defs></svg>