<svg xmlns="http://www.w3.org/2000/svg" viewBox="0 0 64 64"><rect width="58" height="25.604" x="3" y="3" fill="#ef5451" rx="12.802" ry="12.802"/><path fill="#e53a35" d="M5,17.802h0c0-7.07,5.732-12.802,12.802-12.802H50.198c3.025,0,5.801,1.055,7.992,2.81-2.346-2.929-5.947-4.81-9.992-4.81H15.802C8.732,3,3,8.732,3,15.802h0c0,4.045,1.881,7.646,4.81,9.992-1.755-2.191-2.81-4.966-2.81-7.992Z"/><circle cx="16.857" cy="15.802" r="9" fill="#e4f2fc"/><path fill="#bdddf4" d="M9.857,17.802c0-4.971,4.029-9,9-9,1.974,0,3.795,.643,5.279,1.721-1.636-2.252-4.282-3.721-7.279-3.721-4.971,0-9,4.029-9,9,0,2.996,1.47,5.643,3.721,7.279-1.078-1.484-1.721-3.304-1.721-5.279Z"/><rect width="58" height="25.604" x="3" y="35.396" fill="#9ccc65" rx="12.802" ry="12.802" transform="rotate(-180 32 48.198)"/><path fill="#7cb342" d="M5,50.198c0-7.07,5.732-12.802,12.802-12.802H50.198c3.025,0,5.801,1.055,7.992,2.81-2.346-2.929-5.947-4.81-9.992-4.81H15.802c-7.07,0-12.802,5.732-12.802,12.802,0,4.045,1.881,7.646,4.81,9.992-1.755-2.191-2.81-4.966-2.81-7.992Z"/><circle cx="47.143" cy="48.198" r="9" fill="#e4f2fc"/><g><path d="M15.802,29.604H48.198c7.61,0,13.802-6.191,13.802-13.802s-6.191-13.802-13.802-13.802H15.802C8.191,2,2,8.191,2,15.802s6.191,13.802,13.802,13.802Zm0-25.604H48.198c6.507,0,11.802,5.294,11.802,11.802s-5.294,11.802-11.802,11.802H15.802c-6.507,0-11.802-5.294-11.802-11.802S9.294,4,15.802,4Z"/><path d="M16.857 25.802c5.514 0 10-4.486 10-10s-4.486-10-10-10S6.857 10.288 6.857 15.802s4.486 10 10 10zm0-18c4.411 0 8 3.589 8 8s-3.589 8-8 8-8-3.589-8-8 3.589-8 8-8zM48.198 34.396H15.802c-7.61 0-13.802 6.191-13.802 13.802s6.191 13.802 13.802 13.802H48.198c7.61 0 13.802-6.191 13.802-13.802s-6.191-13.802-13.802-13.802zm0 25.604H15.802c-6.507 0-11.802-5.294-11.802-11.802s5.294-11.802 11.802-11.802H48.198c6.507 0 11.802 5.294 11.802 11.802s-5.294 11.802-11.802 11.802z"/><path d="M47.143,38.198c-5.514,0-10,4.486-10,10s4.486,10,10,10,10-4.486,10-10-4.486-10-10-10Zm0,18c-4.411,0-8-3.589-8-8s3.589-8,8-8,8,3.589,8,8-3.589,8-8,8Z"/></g></svg>