<svg xmlns="http://www.w3.org/2000/svg" viewBox="0 0 32 32"><path d="m30.75,17c0,4.27-3.48,7.75-7.75,7.75h-12c-4.27,0-7.75-3.48-7.75-7.75s3.48-7.75,7.75-7.75h12c4.27,0,7.75,3.48,7.75,7.75Z"/><rect width="26" height="14" x="2" y="8" fill="#fff" rx="7" ry="7"/><path fill="#ff00f5" d="m21,22.75h-12c-4.27,0-7.75-3.48-7.75-7.75s3.48-7.75,7.75-7.75h12c4.27,0,7.75,3.48,7.75,7.75s-3.48,7.75-7.75,7.75Zm-12-14c-3.45,0-6.25,2.8-6.25,6.25s2.8,6.25,6.25,6.25h12c3.45,0,6.25-2.8,6.25-6.25s-2.8-6.25-6.25-6.25h-12Z"/><circle cx="21" cy="15" r="4" fill="#ff00f5"/></svg>