<svg xmlns="http://www.w3.org/2000/svg" xmlns:xlink="http://www.w3.org/1999/xlink" viewBox="0 0 96 96"><defs><linearGradient id="a" x1="30.41" x2="65.59" y1="12.91" y2="48.09" gradientTransform="rotate(-90 48 30.5)" gradientUnits="userSpaceOnUse"><stop offset="0" stop-color="#fafafa"/><stop offset=".29" stop-color="#f7f7f7"/><stop offset=".53" stop-color="#ededed"/><stop offset=".75" stop-color="#dcdcdc"/><stop offset=".95" stop-color="#c4c4c4"/><stop offset="1" stop-color="#bdbdbd"/></linearGradient><linearGradient id="c" x1="56.66" x2="74.34" y1="21.66" y2="39.34" xlink:href="#a"/><linearGradient id="d" x1="60.91" x2="70.09" y1="25.91" y2="35.09" gradientUnits="userSpaceOnUse"><stop offset="0" stop-color="#a5e4f1"/><stop offset=".25" stop-color="#a2e1ef"/><stop offset=".46" stop-color="#98d8e9"/><stop offset=".64" stop-color="#87c8df"/><stop offset=".82" stop-color="#6fb1d0"/><stop offset=".98" stop-color="#5194bd"/><stop offset="1" stop-color="#4d91bb"/></linearGradient><linearGradient id="e" x1="30.41" x2="65.59" y1="47.91" y2="83.09" gradientTransform="rotate(90 48 65.5)" xlink:href="#a"/><linearGradient id="f" x1="21.66" x2="39.34" y1="56.66" y2="74.34" xlink:href="#a"/><linearGradient id="g" x1="25.91" x2="35.09" y1="60.91" y2="70.09" gradientUnits="userSpaceOnUse"><stop offset="0" stop-color="#e88f8d"/><stop offset=".22" stop-color="#e58d8c"/><stop offset=".39" stop-color="#db878a"/><stop offset=".55" stop-color="#ca7d87"/><stop offset=".7" stop-color="#b26f82"/><stop offset=".84" stop-color="#935c7b"/><stop offset=".98" stop-color="#6e4674"/><stop offset="1" stop-color="#674272"/></linearGradient><linearGradient id="b" x1="28.29" x2="67.71" y1="10.79" y2="50.21" gradientUnits="userSpaceOnUse"><stop offset="0" stop-color="#666"/><stop offset="1" stop-color="#333"/></linearGradient><linearGradient id="h" x1="28.29" x2="67.71" y1="45.79" y2="85.21" xlink:href="#b"/></defs><g data-name="49 Toggle"><rect width="25" height="60" x="35.5" y=".5" fill="url(#a)" rx="12.5" ry="12.5" transform="rotate(90 48 30.5)"/><circle cx="65.5" cy="30.5" r="12.5" fill="url(#c)"/><circle cx="65.5" cy="30.5" r="6.5" fill="url(#d)"/><rect width="25" height="60" x="35.5" y="35.5" fill="url(#e)" rx="12.5" ry="12.5" transform="rotate(-90 48 65.5)"/><circle cx="30.5" cy="65.5" r="12.5" fill="url(#f)"/><circle cx="30.5" cy="65.5" r="6.5" fill="url(#g)"/><path fill="url(#b)" d="M30.5,46h35a15.5,15.5,0,0,0,0-31h-35a15.5,15.5,0,0,0,0,31ZM75,30.5A9.5,9.5,0,1,1,65.5,21,9.51,9.51,0,0,1,75,30.5ZM30.5,21H53.28a15.39,15.39,0,0,0,0,19H30.5a9.5,9.5,0,0,1,0-19Z"/><path fill="url(#h)" d="M65.5,50h-35a15.5,15.5,0,0,0,0,31h35a15.5,15.5,0,0,0,0-31ZM21,65.5A9.5,9.5,0,1,1,30.5,75,9.51,9.51,0,0,1,21,65.5ZM65.5,75H42.72a15.39,15.39,0,0,0,0-19H65.5a9.5,9.5,0,0,1,0,19Z"/></g></svg>