<svg xmlns="http://www.w3.org/2000/svg" enable-background="new 0 0 25 25" viewBox="0 0 25 25"><path fill="#583689" d="M19 12h-13c-3.309 0-6-2.691-6-6s2.691-6 6-6h13c3.309 0 6 2.691 6 6s-2.691 6-6 6zm-13-10c-2.206 0-4 1.794-4 4s1.794 4 4 4h13c2.206 0 4-1.794 4-4s-1.794-4-4-4zM19 25h-13c-3.309 0-6-2.691-6-6s2.691-6 6-6h13c3.309 0 6 2.691 6 6s-2.691 6-6 6zm-13-10c-2.206 0-4 1.794-4 4s1.794 4 4 4h13c2.206 0 4-1.794 4-4s-1.794-4-4-4z"/><g fill="#de002a"><path d="M6 9c-1.654 0-3-1.346-3-3s1.346-3 3-3 3 1.346 3 3-1.346 3-3 3zm0-4c-.551 0-1 .448-1 1s.449 1 1 1 1-.448 1-1-.449-1-1-1zM19 22c-1.654 0-3-1.346-3-3s1.346-3 3-3 3 1.346 3 3-1.346 3-3 3zm0-4c-.551 0-1 .448-1 1s.449 1 1 1 1-.448 1-1-.449-1-1-1z"/></g></svg>