<svg xmlns="http://www.w3.org/2000/svg" viewBox="0 0 32 32"><defs><linearGradient id="a" x1=".374" x2="36.225" y1="16" y2="16" gradientUnits="userSpaceOnUse"><stop offset="0" stop-color="#e93e3a"/><stop offset=".355" stop-color="#ed683c"/><stop offset=".705" stop-color="#f3903f"/><stop offset="1" stop-color="#fdc70c"/></linearGradient></defs><g data-name="Switch"><path fill="url(#a)" d="M25,9H7A7,7,0,0,0,7,23H25A7,7,0,0,0,25,9Zm0,12H7A5,5,0,0,1,7,11H25a5,5,0,0,1,0,10Z"/><path fill="url(#a)" d="M25,12a4,4,0,1,0,4,4A4,4,0,0,0,25,12Zm0,6a2,2,0,1,1,2-2A2,2,0,0,1,25,18Z"/></g></svg>