<svg xmlns="http://www.w3.org/2000/svg" data-name="Flat gradient" viewBox="0 0 64 64"><defs><linearGradient id="a" x1="3.498" x2="60.502" y1="32.019" y2="32.019" gradientUnits="userSpaceOnUse"><stop offset="0" stop-color="#00c0ff"/><stop offset="1" stop-color="#5558ff"/></linearGradient></defs><path fill="url(#a)" d="M24.5,44.38A10.58088,10.58088,0,0,1,13.99994,54.87989C.074,54.30542.07068,34.45581,14.00006,33.88A10.55966,10.55966,0,0,1,24.5,44.38Zm27.19-8.82H24.19a13.37757,13.37757,0,0,1-.01,17.63H51.69a8.815,8.815,0,0,0,0-17.63ZM41.26,25.43982c5.735,8.58179,19.19971,4.5379,19.24-5.80981C60.46393,9.2876,46.99451,5.23737,41.26007,13.81A10.55269,10.55269,0,0,0,41.26,25.43982ZM12.31,28.44H39.77a14.8954,14.8954,0,0,1-1-1.33,13.61605,13.61605,0,0,1,1.01-16.3H12.31a8.815,8.815,0,0,0,0,17.63Z"/></svg>