<svg xmlns="http://www.w3.org/2000/svg" width="512" height="512" fill-rule="evenodd" clip-rule="evenodd" image-rendering="optimizeQuality" shape-rendering="geometricPrecision" text-rendering="geometricPrecision" viewBox="0 0 512 512"><path fill="#df5a49" d="M431 222l-350 0c-45,0 -81,-37 -81,-81 0,-45 37,-82 81,-82l350 0c45,0 81,37 81,82 0,45 -36,81 -81,81z"/><path fill="#e5e5e5" d="M113 181c-23 0-41-19-41-42 0-23 18-42 41-42 24 0 42 19 42 42 0 23-19 42-42 42zM373 178c-2 0-4-1-5-2l-28-28c-3-3-3-7 0-10 3-3 8-3 11 0l22 22 55-55c3-3 8-3 11 0 3 3 3 8 0 11l-61 60c-1 1-3 2-5 2z"/><path fill="#c95142" d="M431 222l-350 0c-45,0 -81,-37 -81,-81 0,-1 0,-1 0,-2l512 0c0,1 0,1 0,2 0,45 -36,81 -81,81z"/><path fill="#cecece" d="M113 181c-23 0-41-19-41-42l0 0 83 0 0 0c0 23-19 42-42 42zM373 178c-2 0-4-1-5-2l-28-28c-2-2-2-6-1-9l13 0 21 21 21-21 21 0-37 37c-1 1-3 2-5 2z"/><g><path fill="#7ed63f" d="M431 453l-350 0c-45,0 -81,-37 -81,-82 0,-45 37,-81 81,-81l350 0c45,0 81,37 81,81 0,45 -36,82 -81,82z"/><path fill="#e5e5e5" d="M398 413c-23 0-42-19-42-42 0-23 19-42 42-42 23 0 42 19 42 42 0 23-19 42-42 42zM140 409c-2 0-4-1-5-2l-61-61c-3-3-3-8 0-10 3-3 7-3 10 0l61 60c3 3 3 8 0 11-1 1-3 2-5 2z"/><path fill="#e5e5e5" d="M79 409c-2,0 -4,-1 -5,-2 -3,-3 -3,-8 0,-11l61 -60c3,-3 7,-3 10,0 3,2 3,7 0,10l-61 61c-1,1 -3,2 -5,2z"/></g><g><path fill="#71c139" d="M431 453l-350 0c-45,0 -81,-37 -81,-82l0 0 512 0 0 0c0,45 -36,82 -81,82z"/><path fill="#cecece" d="M398 413c-23 0-42-19-42-42l0 0 84 0 0 0c0 23-19 42-42 42zM140 409c-2 0-4-1-5-2l-36-36 21 0 25 25c3 3 3 8 0 11-1 1-3 2-5 2z"/><path fill="#cecece" d="M79 409c-2,0 -4,-1 -5,-2 -3,-3 -3,-8 0,-11l25 -25 21 0 -36 36c-1,1 -3,2 -5,2z"/></g></svg>