<svg xmlns="http://www.w3.org/2000/svg" enable-background="new 0 0 64 64" viewBox="0 0 64 64"><path fill="#60DAA8" d="M60,17c0,2.47998-1.01001,4.73999-2.64001,6.35999C55.73999,24.98999,53.47998,26,51,26H23.37
		c2.25-2.33002,3.63-5.5,3.63-9s-1.38-6.67004-3.63-9H51C55.96997,8,60,12.02997,60,17z"/><path fill="#FD7A6E" d="M37,47c0,3.5,1.38,6.66998,3.63,9H13c-4.96997,0-9-4.03003-9-9c0-2.48004,1.01001-4.73999,2.64001-6.35999
		C8.26001,39.01001,10.52002,38,13,38h27.63C38.38,40.32996,37,43.5,37,47z"/><path fill="#4FC693" d="M42,22c0.25586,0,0.51172-0.09766,0.70703-0.29297l8-8c0.39063-0.39063,0.39063-1.02344,0-1.41406
		s-1.02344-0.39063-1.41406,0L42,19.58594l-3.29297-3.29297c-0.39063-0.39063-1.02344-0.39063-1.41406,0s-0.39063,1.02344,0,1.41406
		l4,4C41.48828,21.90234,41.74414,22,42,22z"/><path fill="#EF6962" d="M25.70703,42.29297c-0.39063-0.39063-1.02344-0.39063-1.41406,0L21,45.58594l-3.29297-3.29297
		c-0.39063-0.39063-1.02344-0.39063-1.41406,0s-0.39063,1.02344,0,1.41406L19.58594,47l-3.29297,3.29297
		c-0.39057,0.39057-0.39063,1.02327-0.00015,1.41391c0.36034,0.36049,1.03012,0.38425,1.41422,0.00016L21,48.41406
		c0,0,3.28296,3.28296,3.29295,3.29295c0.36728,0.36728,1.02211,0.39199,1.41409,0.00002c0.39063-0.39063,0.39063-1.02344,0-1.41406
		L22.41406,47l3.29297-3.29297C26.09766,43.31641,26.09766,42.68359,25.70703,42.29297z"/><path fill="#F26F68" d="M6.64001,52.35999C8.26001,53.98999,10.52002,55,13,55h23.76422
			c0.27283,0.34711,0.55945,0.68274,0.86578,1H13c-2.47998,0-4.73999-1.01001-6.35999-2.64001C5.01001,51.73999,4,49.47998,4,47
			c0-0.16913,0.01605-0.33417,0.02527-0.50098C4.15143,48.78101,5.12067,50.84998,6.64001,52.35999z"/><path fill="#ECECF6" d="M30,17c0,3.5-1.38,6.66998-3.63,9c-2.35999,2.46997-5.69,4-9.37,4C9.82001,30,4,24.17999,4,17
		S9.82001,4,17,4c3.67999,0,7.01001,1.52997,9.37,4C28.62,10.32996,30,13.5,30,17z"/><circle cx="17" cy="17" r="9" fill="#60DAA8"/><path fill="#ECECF6" d="M60,47c0,7.17999-5.82001,13-13,13c-3.67999,0-7.01001-1.53003-9.37-4C35.38,53.66998,34,50.5,34,47
		s1.38-6.67004,3.63-9c2.35999-2.47003,5.69-4,9.37-4C54.17999,34,60,39.82001,60,47z"/><circle cx="47" cy="47" r="9" fill="#FD7A6E"/><path fill="#EF6962" d="M50 42h-6c-.55225 0-1 .44727-1 1s.44775 1 1 1h6c.55225 0 1-.44727 1-1S50.55225 42 50 42zM50 46h-6c-.55225 0-1 .44727-1 1s.44775 1 1 1h6c.55225 0 1-.44727 1-1S50.55225 46 50 46zM50 50h-6c-.55225 0-1 .44727-1 1s.44775 1 1 1h6c.55225 0 1-.44727 1-1S50.55225 50 50 50z"/><path fill="#4FC693" d="M14 14h6c.55225 0 1-.44775 1-1s-.44775-1-1-1h-6c-.55225 0-1 .44775-1 1S13.44775 14 14 14zM14 18h6c.55225 0 1-.44775 1-1s-.44775-1-1-1h-6c-.55225 0-1 .44775-1 1S13.44775 18 14 18zM14 22h6c.55225 0 1-.44775 1-1s-.44775-1-1-1h-6c-.55225 0-1 .44775-1 1S13.44775 22 14 22z"/><path fill="#DFDFE5" d="M46.02942,59.02942c7.17999,0,13-5.82001,13-13c0-3.34283-1.27234-6.38092-3.34534-8.68408
		C58.32782,39.72491,60,43.16284,60,47c0,7.17999-5.82001,13-13,13c-3.67999,0-7.01001-1.53003-9.37-4
		c-0.09338-0.09668-0.1759-0.20319-0.26624-0.30273C39.6615,57.76715,42.69812,59.02942,46.02942,59.02942z"/><path fill="#F26F68" d="M46.14703,55.14703c4.96997,0,9-4.03003,9-9c0-2.26782-0.84552-4.33411-2.23016-5.91693
		C54.80286,41.87988,56,44.29779,56,47c0,4.96997-4.03003,9-9,9c-2.70215,0-5.12012-1.19714-6.7699-3.08313
		C41.81293,54.30151,43.87921,55.14703,46.14703,55.14703z"/><path fill="#63CEA0" d="M57.35999,22.35999C55.73999,23.98999,53.47998,25,51,25H27.23578
			c-0.27283,0.34711-0.55945,0.68274-0.86578,1H51c2.47998,0,4.73999-1.01001,6.35999-2.64001C58.98999,21.73999,60,19.47998,60,17
			c0-0.16913-0.01605-0.33417-0.02527-0.50098C59.84857,18.78101,58.87933,20.84998,57.35999,22.35999z"/><path fill="#DFDFE5" d="M17.97058,29.02942c-7.17999,0-13-5.82001-13-13c0-3.34283,1.27234-6.38092,3.34534-8.68408
		C5.67218,9.72491,4,13.16284,4,17c0,7.17999,5.82001,13,13,13c3.67999,0,7.01001-1.53003,9.37-4
		c0.09338-0.09668,0.1759-0.20319,0.26624-0.30273C24.3385,27.76715,21.30188,29.02942,17.97058,29.02942z"/><path fill="#63CEA0" d="M17.85297,25.14703c-4.96997,0-9-4.03003-9-9c0-2.26782,0.84552-4.33411,2.23016-5.91693
		C9.19714,11.87988,8,14.29779,8,17c0,4.96997,4.03003,9,9,9c2.70215,0,5.12012-1.19714,6.7699-3.08313
		C22.18707,24.30151,20.12079,25.14703,17.85297,25.14703z"/></svg>