<?xml version="1.0" encoding="utf-8"?>
<svg xmlns="http://www.w3.org/2000/svg" viewBox="812.949 336.048 181.616 194.664" width="181.616px" height="194.664px"><path id="path28" d="M 994.565 474.623 L 976.42 474.623 L 976.42 501.015 L 963.22 501.015 L 963.22 517.512 L 931.877 517.512 L 931.877 530.712 L 859.293 530.712 L 859.293 517.512 L 829.597 517.512 L 829.597 501.015 L 813.099 501.015 L 813.099 474.623 L 841.529 474.587 L 841.503 460.357 L 889.884 460.959 L 890.195 446.067 L 920.905 445.757 L 921.216 424.664 L 890.195 424.353 L 890.195 409.153 L 842.111 408.843 L 842.111 393.953 L 812.949 393.641 L 813.099 370.691 L 829.597 370.691 L 829.597 349.244 L 859.293 349.244 L 859.293 336.048 L 931.877 336.048 L 931.877 349.244 L 963.22 349.244 L 963.22 370.691 L 976.42 370.691 L 976.42 395.437 L 994.565 395.437 L 994.565 474.623 Z" style="fill: rgb(255, 242, 0); fill-opacity: 1; fill-rule: nonzero; stroke: rgb(0, 0, 0); stroke-width: 0px; transform-origin: 903.757px 433.38px;" transform="matrix(-1, 0, 0, -1, 0, 0.000061035157)"/></svg>